<svg width="235" height="125" viewBox="0 0 235 125" fill="none" xmlns="http://www.w3.org/2000/svg">
<rect y="16" width="235" height="109" fill="#B61E79"/>
<path d="M96.536 68.728C97.0907 68.728 97.5173 68.984 97.816 69.496C98.1573 70.008 98.328 70.712 98.328 71.608C98.328 73.272 97.9227 74.5947 97.112 75.576C94.7227 78.4347 92.3973 80.44 90.136 81.592C87.9173 82.744 85.2293 83.32 82.072 83.32C79.8533 83.32 77.8053 83.0427 75.928 82.488C74.0507 81.9333 71.768 81.1013 69.08 79.992C66.648 78.9253 64.3013 78.0507 62.04 77.368C59.864 81.336 56.6 83.32 52.248 83.32C49.8587 83.32 47.96 82.7867 46.552 81.72C45.1013 80.6107 44.376 79.2027 44.376 77.496C44.376 75.4053 45.3787 73.6773 47.384 72.312C49.3893 70.904 52.056 70.2 55.384 70.2H56.216L57.368 51.576C57.624 47.3093 58.392 43.7893 59.672 41.016C60.952 38.2427 62.7227 35.8747 64.984 33.912C66.9467 32.2053 69.1867 30.9253 71.704 30.072C74.2213 29.176 76.888 28.728 79.704 28.728C84.312 28.728 87.8533 29.9227 90.328 32.312C92.8027 34.7013 94.04 37.816 94.04 41.656C94.04 44.2587 93.5707 46.3707 92.632 47.992C91.6933 49.5707 90.392 50.36 88.728 50.36C87.5333 50.36 86.5947 50.0827 85.912 49.528C85.2293 48.9307 84.888 48.0987 84.888 47.032C84.888 46.648 84.9733 45.944 85.144 44.92C85.4 43.7253 85.528 42.6587 85.528 41.72C85.528 39.928 84.9947 38.52 83.928 37.496C82.904 36.4293 81.3253 35.896 79.192 35.896C75.4373 35.896 72.536 37.1333 70.488 39.608C68.44 42.04 67.1387 45.88 66.584 51.128L65.112 65.656C64.8987 67.704 64.6213 69.4747 64.28 70.968C67.0107 71.4373 70.424 72.184 74.52 73.208C76.9093 73.8053 78.744 74.232 80.024 74.488C81.304 74.744 82.4347 74.872 83.416 74.872C85.8907 74.872 88.0027 74.4667 89.752 73.656C91.544 72.8027 93.2293 71.4587 94.808 69.624C95.32 69.0267 95.896 68.728 96.536 68.728ZM130.9 63.352C131.454 63.352 131.881 63.6293 132.18 64.184C132.478 64.7387 132.628 65.4427 132.628 66.296C132.628 68.344 132.009 69.56 130.772 69.944C128.212 70.84 125.396 71.352 122.324 71.48C121.513 75.064 119.913 77.944 117.524 80.12C115.134 82.2533 112.425 83.32 109.396 83.32C106.836 83.32 104.638 82.7013 102.804 81.464C101.012 80.2267 99.6462 78.584 98.7075 76.536C97.7688 74.488 97.2995 72.2693 97.2995 69.88C97.2995 66.6373 97.9182 63.7573 99.1555 61.24C100.393 58.68 102.1 56.696 104.276 55.288C106.452 53.8373 108.862 53.112 111.508 53.112C114.75 53.112 117.353 54.2427 119.316 56.504C121.321 58.7227 122.494 61.4747 122.836 64.76C124.841 64.632 127.23 64.2053 130.004 63.48C130.345 63.3947 130.644 63.352 130.9 63.352ZM109.908 76.536C111.273 76.536 112.446 75.9813 113.428 74.872C114.452 73.7627 115.134 72.1627 115.476 70.072C114.153 69.176 113.129 68.0027 112.404 66.552C111.721 65.1013 111.38 63.5653 111.38 61.944C111.38 61.2613 111.444 60.5787 111.572 59.896H111.252C109.545 59.896 108.116 60.728 106.964 62.392C105.854 64.0133 105.3 66.3173 105.3 69.304C105.3 71.6507 105.748 73.4427 106.644 74.68C107.582 75.9173 108.67 76.536 109.908 76.536ZM159.903 68.856C160.457 68.856 160.884 69.1333 161.183 69.688C161.524 70.2 161.694 70.8613 161.694 71.672C161.694 72.6533 161.545 73.4213 161.247 73.976C160.948 74.5307 160.479 75.0213 159.839 75.448C156.169 77.9227 153.481 79.7573 151.775 80.952L147.679 83.704C146.057 92.536 143.924 99.4693 141.279 104.504C138.676 109.581 135.348 112.12 131.295 112.12C129.119 112.12 127.348 111.437 125.983 110.072C124.617 108.749 123.934 107 123.934 104.824C123.934 101.795 125.129 98.5307 127.519 95.032C129.908 91.576 134.388 87.3093 140.958 82.232L141.343 79.736C140.617 80.888 139.657 81.784 138.463 82.424C137.311 83.0213 136.159 83.32 135.007 83.32C132.361 83.32 130.249 82.36 128.671 80.44C127.092 78.52 126.303 76.0027 126.303 72.888C126.303 69.4747 127.092 66.2533 128.671 63.224C130.249 60.152 132.34 57.6987 134.943 55.864C137.588 53.9867 140.383 53.048 143.327 53.048C144.265 53.048 144.884 53.24 145.183 53.624C145.524 53.9653 145.801 54.6053 146.015 55.544C146.825 55.3733 147.764 55.288 148.831 55.288C149.897 55.288 150.644 55.4587 151.071 55.8C151.54 56.0987 151.775 56.7173 151.775 57.656C151.775 58.168 151.753 58.5733 151.711 58.872C151.54 60.1947 151.007 63.544 150.111 68.92C149.94 69.944 149.748 71.0747 149.535 72.312C149.364 73.5067 149.172 74.7867 148.959 76.152C152.244 73.592 155.401 71.3307 158.431 69.368C158.985 69.0267 159.476 68.856 159.903 68.856ZM137.311 76.856C138.292 76.856 139.231 76.2587 140.127 75.064C141.023 73.8693 141.663 72.1627 142.047 69.944L144.095 59C142.345 59.0427 140.724 59.7253 139.231 61.048C137.737 62.328 136.543 64.0347 135.647 66.168C134.751 68.3013 134.303 70.5627 134.303 72.952C134.303 74.2747 134.559 75.256 135.071 75.896C135.625 76.536 136.372 76.856 137.311 76.856ZM131.999 105.912C133.065 105.912 134.26 104.632 135.583 102.072C136.948 99.512 138.249 95.4373 139.487 89.848C136.201 92.664 133.833 95.2027 132.383 97.464C130.932 99.7253 130.207 101.709 130.207 103.416C130.207 104.141 130.335 104.739 130.591 105.208C130.889 105.677 131.359 105.912 131.999 105.912ZM168.576 83.32C166.058 83.32 163.904 82.7013 162.112 81.464C160.362 80.184 159.04 78.52 158.144 76.472C157.248 74.424 156.799 72.2267 156.799 69.88C156.799 66.6373 157.397 63.7573 158.592 61.24C159.829 58.68 161.493 56.696 163.584 55.288C165.674 53.8373 168.021 53.112 170.624 53.112C173.141 53.112 175.296 53.752 177.088 55.032C178.88 56.2693 180.224 57.912 181.12 59.96C182.016 62.008 182.464 64.2053 182.464 66.552C182.464 69.7947 181.845 72.696 180.608 75.256C179.37 77.7733 177.685 79.7573 175.552 81.208C173.461 82.616 171.136 83.32 168.576 83.32ZM169.28 76.408C170.73 76.408 171.946 75.6187 172.928 74.04C173.952 72.4613 174.464 70.1573 174.464 67.128C174.464 64.7813 174.037 63.0107 173.184 61.816C172.33 60.6213 171.306 60.024 170.112 60.024C168.576 60.024 167.296 60.8133 166.272 62.392C165.29 63.928 164.8 66.232 164.8 69.304C164.8 71.736 165.226 73.528 166.08 74.68C166.933 75.832 168 76.408 169.28 76.408Z" fill="black"/>
<path d="M122.82 50V35.6445H123.907V50H122.82ZM124.871 50V48.9541C126.553 48.9541 127.715 48.8105 128.357 48.5234C129.287 48.0723 129.759 47.2178 129.772 45.96V39.6846C129.772 38.2354 129.157 37.3262 127.927 36.957C127.353 36.793 126.334 36.7041 124.871 36.6904V35.6445C126.881 35.6445 128.296 35.8564 129.116 36.2803C130.265 36.8955 130.846 38.0303 130.859 39.6846V45.96C130.859 47.915 130.06 49.1455 128.46 49.6514C127.708 49.8838 126.512 50 124.871 50ZM132.5 47.0674V42.166C132.514 41.5234 132.814 40.9082 133.402 40.3203C134.072 39.623 134.899 39.2744 135.884 39.2744V40.2793C135.104 40.2793 134.462 40.6279 133.956 41.3252C133.696 41.6807 133.566 42.0156 133.566 42.3301V43.9502H139.145V42.3301C139.145 41.6465 138.81 41.0928 138.14 40.6689C137.716 40.3955 137.278 40.2588 136.827 40.2588V39.2744C137.743 39.2744 138.563 39.6094 139.288 40.2793C139.89 40.8535 140.197 41.4756 140.211 42.1455V44.9756H133.566V47.0674C133.566 47.4912 133.826 47.9287 134.346 48.3799C134.838 48.79 135.357 48.9951 135.904 48.9951V50C134.701 50 133.751 49.5078 133.054 48.5234C132.685 48.0039 132.5 47.5186 132.5 47.0674ZM136.827 50V48.9336C137.716 48.9336 138.413 48.5576 138.919 47.8057C139.069 47.5732 139.172 47.3545 139.227 47.1494L140.231 47.498C139.931 48.4961 139.322 49.2139 138.406 49.6514C137.914 49.8838 137.388 50 136.827 50ZM141.441 47.1699L142.467 46.9854C142.467 47.6963 142.843 48.2773 143.595 48.7285C144.005 48.9609 144.408 49.084 144.805 49.0977V50.1025C143.615 50.1025 142.686 49.6582 142.016 48.7695C141.633 48.25 141.441 47.7168 141.441 47.1699ZM141.523 42.3916C141.523 41.1475 142.077 40.2314 143.185 39.6436C143.704 39.3701 144.23 39.2334 144.764 39.2334V40.2588C144.121 40.2588 143.567 40.5254 143.103 41.0586C142.747 41.4551 142.569 41.8994 142.569 42.3916C142.569 42.8701 142.904 43.2393 143.574 43.499C143.834 43.6084 144.866 43.8818 146.671 44.3193C146.767 44.3467 146.855 44.3672 146.938 44.3809C148.373 44.75 149.139 45.4883 149.234 46.5957C149.234 46.6641 149.234 46.7324 149.234 46.8008C149.234 48.0176 148.735 48.9336 147.737 49.5488C147.122 49.918 146.432 50.1025 145.666 50.1025V49.0977C146.377 49.0977 146.999 48.8447 147.532 48.3389C147.97 47.915 148.188 47.4092 148.188 46.8213C148.188 46.2061 147.621 45.7207 146.486 45.3652C146.418 45.3379 145.55 45.126 143.882 44.7295C143.759 44.7021 143.649 44.6748 143.554 44.6475C142.351 44.292 141.681 43.6631 141.544 42.7607C141.53 42.6377 141.523 42.5146 141.523 42.3916ZM145.646 40.2793V39.2334C146.794 39.2334 147.71 39.6641 148.394 40.5254C148.831 41.0586 149.05 41.6191 149.05 42.207L148.024 42.3711C148.024 41.5645 147.58 40.9561 146.691 40.5459C146.309 40.3682 145.96 40.2793 145.646 40.2793ZM150.526 37.8594C150.526 37.5586 150.677 37.3467 150.978 37.2236C151.06 37.1963 151.142 37.1826 151.224 37.1826C151.538 37.1826 151.75 37.333 151.859 37.6338C151.887 37.7158 151.9 37.791 151.9 37.8594C151.9 38.1738 151.75 38.3857 151.449 38.4951C151.367 38.5225 151.292 38.5361 151.224 38.5361C150.909 38.5361 150.69 38.3926 150.567 38.1055C150.54 38.0234 150.526 37.9414 150.526 37.8594ZM150.69 50V39.3564H151.757V50H150.69ZM153.377 53.7324L153.644 52.7275H157.396C158.354 52.6865 159.071 52.3242 159.55 51.6406C159.755 51.3535 159.857 51.0732 159.857 50.7998V48.9951C159.488 49.46 158.969 49.7676 158.299 49.918C158.094 49.9727 157.889 50 157.684 50V49.0361C158.312 49.0361 158.873 48.7559 159.365 48.1953C159.693 47.8262 159.857 47.457 159.857 47.0879V42.207C159.857 41.4688 159.468 40.9082 158.688 40.5254C158.333 40.3477 157.998 40.2588 157.684 40.2588V39.2539C158.408 39.2539 159.058 39.4863 159.632 39.9512C159.728 40.0332 159.803 40.1084 159.857 40.1768V39.2539H160.903V50.7998C160.903 51.374 160.644 51.9688 160.124 52.584C159.481 53.3359 158.682 53.7188 157.725 53.7324H153.377ZM153.562 47.0879V42.125C153.575 41.4824 153.855 40.8604 154.402 40.2588C155.045 39.5889 155.831 39.2539 156.761 39.2539V40.2588C156.036 40.2588 155.435 40.5938 154.956 41.2637C154.724 41.5918 154.607 41.8994 154.607 42.1865V47.0674C154.607 47.5322 154.847 47.9834 155.325 48.4209C155.763 48.8037 156.241 48.9951 156.761 48.9951V50C155.53 49.9863 154.607 49.46 153.992 48.4209C153.705 47.9561 153.562 47.5117 153.562 47.0879ZM162.503 50V42.166C162.503 41.5098 162.797 40.874 163.385 40.2588C164.082 39.5615 164.937 39.2129 165.948 39.2129V40.2793C165.196 40.2793 164.561 40.5732 164.041 41.1611C163.727 41.5303 163.569 41.9062 163.569 42.2891V50H162.503ZM166.83 40.2793V39.2129C168.061 39.2129 169.031 39.7188 169.742 40.7305C170.098 41.2363 170.275 41.7148 170.275 42.166V50H169.188V42.2891C169.188 41.8516 168.963 41.4141 168.512 40.9766C168.033 40.5117 167.473 40.2793 166.83 40.2793ZM171.465 47.1699L172.49 46.9854C172.49 47.6963 172.866 48.2773 173.618 48.7285C174.028 48.9609 174.432 49.084 174.828 49.0977V50.1025C173.639 50.1025 172.709 49.6582 172.039 48.7695C171.656 48.25 171.465 47.7168 171.465 47.1699ZM171.547 42.3916C171.547 41.1475 172.101 40.2314 173.208 39.6436C173.728 39.3701 174.254 39.2334 174.787 39.2334V40.2588C174.145 40.2588 173.591 40.5254 173.126 41.0586C172.771 41.4551 172.593 41.8994 172.593 42.3916C172.593 42.8701 172.928 43.2393 173.598 43.499C173.857 43.6084 174.89 43.8818 176.694 44.3193C176.79 44.3467 176.879 44.3672 176.961 44.3809C178.396 44.75 179.162 45.4883 179.258 46.5957C179.258 46.6641 179.258 46.7324 179.258 46.8008C179.258 48.0176 178.759 48.9336 177.761 49.5488C177.146 49.918 176.455 50.1025 175.689 50.1025V49.0977C176.4 49.0977 177.022 48.8447 177.556 48.3389C177.993 47.915 178.212 47.4092 178.212 46.8213C178.212 46.2061 177.645 45.7207 176.51 45.3652C176.441 45.3379 175.573 45.126 173.905 44.7295C173.782 44.7021 173.673 44.6748 173.577 44.6475C172.374 44.292 171.704 43.6631 171.567 42.7607C171.554 42.6377 171.547 42.5146 171.547 42.3916ZM175.669 40.2793V39.2334C176.817 39.2334 177.733 39.6641 178.417 40.5254C178.854 41.0586 179.073 41.6191 179.073 42.207L178.048 42.3711C178.048 41.5645 177.604 40.9561 176.715 40.5459C176.332 40.3682 175.983 40.2793 175.669 40.2793ZM180.468 49.1797C180.468 48.7969 180.646 48.5303 181.001 48.3799C181.124 48.3252 181.24 48.2979 181.35 48.2979C181.746 48.2979 182.02 48.4824 182.17 48.8516C182.225 48.9609 182.252 49.0703 182.252 49.1797C182.252 49.5762 182.067 49.8564 181.698 50.0205C181.575 50.0615 181.459 50.082 181.35 50.082C180.967 50.082 180.693 49.8975 180.529 49.5283C180.488 49.4053 180.468 49.2891 180.468 49.1797Z" fill="black"/>
</svg>
