<svg width="146" height="214" viewBox="0 0 146 214" fill="none" xmlns="http://www.w3.org/2000/svg">
<rect width="132" height="200" rx="2" fill="#F7F7F7"/>
<line x1="18" y1="29.5" x2="114" y2="29.5" stroke="black"/>
<line x1="18" y1="37.5" x2="114" y2="37.5" stroke="black"/>
<line x1="18" y1="45.5" x2="114" y2="45.5" stroke="black"/>
<line x1="18" y1="54.5" x2="114" y2="54.5" stroke="black"/>
<line x1="18" y1="63.5" x2="114" y2="63.5" stroke="black"/>
<line x1="18" y1="71.5" x2="89" y2="71.5" stroke="black"/>
<line x1="18" y1="118.5" x2="114" y2="118.5" stroke="black"/>
<line x1="18" y1="127.5" x2="114" y2="127.5" stroke="black"/>
<line x1="18" y1="136.5" x2="114" y2="136.5" stroke="black"/>
<line x1="18" y1="145.5" x2="89" y2="145.5" stroke="black"/>
<line x1="137.5" y1="6.5" x2="137.5" y2="205.5" stroke="#F6F6F6" stroke-width="3" stroke-linecap="round"/>
<line x1="7.5" y1="205.5" x2="136.5" y2="205.5" stroke="#F6F6F6" stroke-width="3" stroke-linecap="round"/>
<line x1="144.5" y1="12.5" x2="144.5" y2="212.5" stroke="#F6F6F6" stroke-width="3" stroke-linecap="round"/>
<line x1="14.5" y1="212.5" x2="143.5" y2="212.5" stroke="#F6F6F6" stroke-width="3" stroke-linecap="round"/>
</svg>
