<svg width="465" height="342" viewBox="0 0 465 342" fill="none" xmlns="http://www.w3.org/2000/svg">
<g filter="url(#filter0_d)">
<path d="M4 41C4 18.3563 22.3563 0 45 0H349.742C372.77 0 391.181 19.1901 391.531 42.2151C395.971 334 523.405 334 421.77 334H45C22.3563 334 4 315.644 4 293V41Z" fill="#F0F0F0"/>
</g>
<g filter="url(#filter1_d)">
<path d="M49.03 47.51H51.263V57.921H58.658V47.51H60.862V71H58.658V59.574H51.263V71H49.03V47.51ZM68.745 71.261C67.6623 71.261 66.7923 71.0483 66.135 70.623C65.4777 70.1977 64.9943 69.5113 64.685 68.564C64.3757 67.6167 64.221 66.331 64.221 64.707V60.473C64.221 58.8297 64.3757 57.544 64.685 56.616C65.0137 55.6687 65.5067 54.992 66.164 54.586C66.8407 54.18 67.7107 53.977 68.774 53.977C69.934 53.977 70.8233 54.2283 71.442 54.731C72.08 55.2143 72.515 55.949 72.747 56.935C72.9983 57.921 73.124 59.2453 73.124 60.908V62.416H66.338V65.345C66.338 66.9497 66.5217 68.071 66.889 68.709C67.2563 69.347 67.875 69.666 68.745 69.666C69.4797 69.666 70.0403 69.434 70.427 68.97C70.833 68.506 71.036 67.665 71.036 66.447V65.287H73.095V66.215C73.095 67.839 72.7567 69.086 72.08 69.956C71.4033 70.826 70.2917 71.261 68.745 71.261ZM71.036 61.198V59.806C71.036 58.8007 70.978 58.008 70.862 57.428C70.7653 56.848 70.5527 56.3937 70.224 56.065C69.8953 55.7363 69.4023 55.572 68.745 55.572C68.1457 55.572 67.672 55.7073 67.324 55.978C66.976 56.2293 66.7247 56.6837 66.57 57.341C66.4153 57.979 66.338 58.8877 66.338 60.067V61.198H71.036ZM76.2714 47.51H78.3884V71H76.2714V47.51ZM82.1337 47.51H84.2507V71H82.1337V47.51ZM91.853 71.261C90.1904 71.261 89.0304 70.7487 88.373 69.724C87.7157 68.68 87.387 67.085 87.387 64.939V60.299C87.387 58.153 87.7157 56.5677 88.373 55.543C89.0304 54.499 90.1904 53.977 91.853 53.977C93.535 53.977 94.7047 54.499 95.362 55.543C96.0194 56.5677 96.348 58.153 96.348 60.299V64.939C96.348 67.085 96.0194 68.68 95.362 69.724C94.7047 70.7487 93.535 71.261 91.853 71.261ZM91.853 69.666C92.549 69.666 93.0614 69.4823 93.39 69.115C93.738 68.7477 93.9604 68.2547 94.057 67.636C94.1537 66.998 94.202 66.1377 94.202 65.055V60.183C94.202 59.1003 94.1537 58.2497 94.057 57.631C93.9604 56.993 93.738 56.4903 93.39 56.123C93.0614 55.7557 92.549 55.572 91.853 55.572C91.157 55.572 90.6447 55.7557 90.316 56.123C89.9874 56.4903 89.7747 56.993 89.678 57.631C89.5814 58.2497 89.533 59.1003 89.533 60.183V65.055C89.533 66.1377 89.5814 66.998 89.678 67.636C89.7747 68.2547 89.9874 68.7477 90.316 69.115C90.6447 69.4823 91.157 69.666 91.853 69.666ZM99.463 47.51H101.725L100.942 65.954H100.188L99.463 47.51ZM99.434 68.448H101.696V71H99.434V68.448ZM111.535 47.51H113.739V71H111.535V47.51ZM126.29 71.261C125.284 71.261 124.472 70.9033 123.854 70.188C123.235 69.4727 122.926 68.5833 122.926 67.52C122.926 66.418 123.138 65.5093 123.564 64.794C124.008 64.0787 124.685 63.4407 125.594 62.88C126.502 62.3193 127.865 61.633 129.683 60.821V59.632C129.683 58.588 129.615 57.776 129.48 57.196C129.364 56.616 129.151 56.2003 128.842 55.949C128.552 55.6977 128.136 55.572 127.595 55.572C126.029 55.572 125.246 56.529 125.246 58.443V59.023L123.158 58.994C123.177 57.2733 123.544 56.007 124.26 55.195C124.975 54.383 126.125 53.977 127.711 53.977C129.18 53.977 130.224 54.4217 130.843 55.311C131.481 56.2003 131.8 57.602 131.8 59.516V67.665C131.8 68.2063 131.809 68.825 131.829 69.521C131.867 70.217 131.906 70.71 131.945 71H130.06L129.741 68.68C129.489 69.4147 129.054 70.0333 128.436 70.536C127.836 71.0193 127.121 71.261 126.29 71.261ZM126.957 69.463C127.537 69.463 128.059 69.2697 128.523 68.883C129.006 68.477 129.393 68.0033 129.683 67.462V62.242C128.368 62.938 127.411 63.4793 126.812 63.866C126.232 64.2527 125.787 64.6877 125.478 65.171C125.188 65.635 125.043 66.244 125.043 66.998C125.043 67.8293 125.217 68.448 125.565 68.854C125.932 69.26 126.396 69.463 126.957 69.463ZM134.916 54.238H136.888V55.949C137.429 55.2917 138.038 54.7987 138.715 54.47C139.392 54.122 140.097 53.948 140.832 53.948C142.224 53.948 143.113 54.673 143.5 56.123C144.061 55.4077 144.689 54.8663 145.385 54.499C146.1 54.1317 146.845 53.948 147.618 53.948C148.449 53.948 149.126 54.2477 149.648 54.847C150.189 55.4463 150.46 56.4227 150.46 57.776V71H148.488V57.834C148.488 56.9253 148.343 56.297 148.053 55.949C147.763 55.5817 147.347 55.398 146.806 55.398C146.303 55.398 145.772 55.5527 145.211 55.862C144.65 56.1713 144.128 56.5967 143.645 57.138C143.684 57.4087 143.703 57.6213 143.703 57.776V71H141.702V57.834C141.702 56.906 141.557 56.268 141.267 55.92C140.977 55.572 140.561 55.398 140.02 55.398C139.517 55.398 138.995 55.5527 138.454 55.862C137.913 56.1713 137.391 56.587 136.888 57.109V71H134.916V54.238ZM162.398 71.261C161.393 71.261 160.581 70.9033 159.962 70.188C159.343 69.4727 159.034 68.5833 159.034 67.52C159.034 66.418 159.247 65.5093 159.672 64.794C160.117 64.0787 160.793 63.4407 161.702 62.88C162.611 62.3193 163.974 61.633 165.791 60.821V59.632C165.791 58.588 165.723 57.776 165.588 57.196C165.472 56.616 165.259 56.2003 164.95 55.949C164.66 55.6977 164.244 55.572 163.703 55.572C162.137 55.572 161.354 56.529 161.354 58.443V59.023L159.266 58.994C159.285 57.2733 159.653 56.007 160.368 55.195C161.083 54.383 162.234 53.977 163.819 53.977C165.288 53.977 166.332 54.4217 166.951 55.311C167.589 56.2003 167.908 57.602 167.908 59.516V67.665C167.908 68.2063 167.918 68.825 167.937 69.521C167.976 70.217 168.014 70.71 168.053 71H166.168L165.849 68.68C165.598 69.4147 165.163 70.0333 164.544 70.536C163.945 71.0193 163.229 71.261 162.398 71.261ZM163.065 69.463C163.645 69.463 164.167 69.2697 164.631 68.883C165.114 68.477 165.501 68.0033 165.791 67.462V62.242C164.476 62.938 163.519 63.4793 162.92 63.866C162.34 64.2527 161.895 64.6877 161.586 65.171C161.296 65.635 161.151 66.244 161.151 66.998C161.151 67.8293 161.325 68.448 161.673 68.854C162.04 69.26 162.504 69.463 163.065 69.463ZM176.218 54.238H178.045L180.133 68.245L182.772 54.238H184.599L187.267 68.187L189.268 54.238H191.095L188.369 71H186.397L183.7 57.37L181.09 71H178.944L176.218 54.238ZM197.801 71.261C196.718 71.261 195.848 71.0483 195.191 70.623C194.533 70.1977 194.05 69.5113 193.741 68.564C193.431 67.6167 193.277 66.331 193.277 64.707V60.473C193.277 58.8297 193.431 57.544 193.741 56.616C194.069 55.6687 194.562 54.992 195.22 54.586C195.896 54.18 196.766 53.977 197.83 53.977C198.99 53.977 199.879 54.2283 200.498 54.731C201.136 55.2143 201.571 55.949 201.803 56.935C202.054 57.921 202.18 59.2453 202.18 60.908V62.416H195.394V65.345C195.394 66.9497 195.577 68.071 195.945 68.709C196.312 69.347 196.931 69.666 197.801 69.666C198.535 69.666 199.096 69.434 199.483 68.97C199.889 68.506 200.092 67.665 200.092 66.447V65.287H202.151V66.215C202.151 67.839 201.812 69.086 201.136 69.956C200.459 70.826 199.347 71.261 197.801 71.261ZM200.092 61.198V59.806C200.092 58.8007 200.034 58.008 199.918 57.428C199.821 56.848 199.608 56.3937 199.28 56.065C198.951 55.7363 198.458 55.572 197.801 55.572C197.201 55.572 196.728 55.7073 196.38 55.978C196.032 56.2293 195.78 56.6837 195.626 57.341C195.471 57.979 195.394 58.8877 195.394 60.067V61.198H200.092ZM210.17 71.261C209.087 71.261 208.092 70.7293 207.183 69.666V71H205.066V47.51H207.183V55.63C207.55 55.1467 208.005 54.7503 208.546 54.441C209.087 54.1317 209.696 53.977 210.373 53.977C211.842 53.977 212.848 54.586 213.389 55.804C213.93 57.022 214.201 58.6363 214.201 60.647V64.185C214.201 66.4857 213.901 68.245 213.302 69.463C212.703 70.6617 211.659 71.261 210.17 71.261ZM209.793 69.579C210.702 69.579 211.301 69.1633 211.591 68.332C211.9 67.5007 212.055 66.1377 212.055 64.243V60.647C212.055 58.849 211.9 57.5633 211.591 56.79C211.301 56.0167 210.692 55.63 209.764 55.63C208.913 55.63 208.053 56.065 207.183 56.935V68.361C207.918 69.173 208.788 69.579 209.793 69.579ZM225.92 71.261C224.915 71.261 224.103 70.9033 223.484 70.188C222.866 69.4727 222.556 68.5833 222.556 67.52C222.556 66.418 222.769 65.5093 223.194 64.794C223.639 64.0787 224.316 63.4407 225.224 62.88C226.133 62.3193 227.496 61.633 229.313 60.821V59.632C229.313 58.588 229.246 57.776 229.11 57.196C228.994 56.616 228.782 56.2003 228.472 55.949C228.182 55.6977 227.767 55.572 227.225 55.572C225.659 55.572 224.876 56.529 224.876 58.443V59.023L222.788 58.994C222.808 57.2733 223.175 56.007 223.89 55.195C224.606 54.383 225.756 53.977 227.341 53.977C228.811 53.977 229.855 54.4217 230.473 55.311C231.111 56.2003 231.43 57.602 231.43 59.516V67.665C231.43 68.2063 231.44 68.825 231.459 69.521C231.498 70.217 231.537 70.71 231.575 71H229.69L229.371 68.68C229.12 69.4147 228.685 70.0333 228.066 70.536C227.467 71.0193 226.752 71.261 225.92 71.261ZM226.587 69.463C227.167 69.463 227.689 69.2697 228.153 68.883C228.637 68.477 229.023 68.0033 229.313 67.462V62.242C227.999 62.938 227.042 63.4793 226.442 63.866C225.862 64.2527 225.418 64.6877 225.108 65.171C224.818 65.635 224.673 66.244 224.673 66.998C224.673 67.8293 224.847 68.448 225.195 68.854C225.563 69.26 226.027 69.463 226.587 69.463ZM234.547 54.238H236.664V55.978C237.225 55.3593 237.843 54.876 238.52 54.528C239.216 54.1607 239.941 53.977 240.695 53.977C241.526 53.977 242.164 54.2863 242.609 54.905C243.054 55.5237 243.276 56.4033 243.276 57.544V71H241.159V58.008C241.159 57.1573 241.024 56.5483 240.753 56.181C240.502 55.8137 240.105 55.63 239.564 55.63C239.1 55.63 238.617 55.775 238.114 56.065C237.611 56.3357 237.128 56.7127 236.664 57.196V71H234.547V54.238ZM250.125 71.261C248.694 71.261 247.66 70.7197 247.022 69.637C246.403 68.5543 246.094 66.7563 246.094 64.243V61.14C246.094 58.762 246.374 56.9737 246.935 55.775C247.496 54.5763 248.53 53.977 250.038 53.977C251.121 53.977 252.107 54.4603 252.996 55.427V47.51H255.113V71H252.996V69.811C252.107 70.7777 251.15 71.261 250.125 71.261ZM250.56 69.579C251.372 69.579 252.184 69.2117 252.996 68.477V56.819C252.107 56.0263 251.275 55.63 250.502 55.63C249.613 55.63 249.004 56.007 248.675 56.761C248.366 57.515 248.211 58.7427 248.211 60.444V64.417C248.211 66.2343 248.366 67.549 248.675 68.361C249.004 69.173 249.632 69.579 250.56 69.579ZM266.777 71.261C265.926 71.261 265.278 70.9517 264.834 70.333C264.389 69.7143 264.167 68.8347 264.167 67.694V54.238H266.312V67.23C266.312 68.0807 266.438 68.6897 266.69 69.057C266.96 69.405 267.366 69.579 267.908 69.579C268.391 69.579 268.884 69.434 269.387 69.144C269.909 68.8347 270.402 68.4287 270.866 67.926V54.238H272.983V71H270.866V69.144C270.305 69.8013 269.677 70.3233 268.981 70.71C268.285 71.0773 267.55 71.261 266.777 71.261ZM280.091 71.261C278.776 71.261 277.713 70.8357 276.901 69.985C276.108 69.1343 275.654 67.9743 275.538 66.505L277.307 65.954C277.423 67.23 277.722 68.1677 278.206 68.767C278.689 69.3663 279.366 69.666 280.236 69.666C280.97 69.666 281.531 69.463 281.918 69.057C282.324 68.6317 282.527 68.042 282.527 67.288C282.527 66.186 281.85 65.0647 280.497 63.924L278.206 61.952C277.413 61.2947 276.833 60.647 276.466 60.009C276.098 59.371 275.915 58.617 275.915 57.747C275.915 56.5677 276.272 55.6493 276.988 54.992C277.722 54.3153 278.699 53.977 279.917 53.977C281.154 53.977 282.101 54.3733 282.759 55.166C283.435 55.9587 283.812 57.0317 283.89 58.385L282.382 58.878C282.266 56.674 281.473 55.572 280.004 55.572C279.346 55.572 278.824 55.7557 278.438 56.123C278.051 56.471 277.858 56.964 277.858 57.602C277.858 58.124 277.954 58.5783 278.148 58.965C278.341 59.3517 278.699 59.777 279.221 60.241L281.599 62.358C282.507 63.17 283.194 63.9337 283.658 64.649C284.141 65.345 284.383 66.2053 284.383 67.23C284.383 68.506 283.996 69.5017 283.223 70.217C282.449 70.913 281.405 71.261 280.091 71.261ZM291.003 71.261C289.92 71.261 289.05 71.0483 288.393 70.623C287.735 70.1977 287.252 69.5113 286.943 68.564C286.633 67.6167 286.479 66.331 286.479 64.707V60.473C286.479 58.8297 286.633 57.544 286.943 56.616C287.271 55.6687 287.764 54.992 288.422 54.586C289.098 54.18 289.968 53.977 291.032 53.977C292.192 53.977 293.081 54.2283 293.7 54.731C294.338 55.2143 294.773 55.949 295.005 56.935C295.256 57.921 295.382 59.2453 295.382 60.908V62.416H288.596V65.345C288.596 66.9497 288.779 68.071 289.147 68.709C289.514 69.347 290.133 69.666 291.003 69.666C291.737 69.666 292.298 69.434 292.685 68.97C293.091 68.506 293.294 67.665 293.294 66.447V65.287H295.353V66.215C295.353 67.839 295.014 69.086 294.338 69.956C293.661 70.826 292.549 71.261 291.003 71.261ZM293.294 61.198V59.806C293.294 58.8007 293.236 58.008 293.12 57.428C293.023 56.848 292.81 56.3937 292.482 56.065C292.153 55.7363 291.66 55.572 291.003 55.572C290.403 55.572 289.93 55.7073 289.582 55.978C289.234 56.2293 288.982 56.6837 288.828 57.341C288.673 57.979 288.596 58.8877 288.596 60.067V61.198H293.294ZM298.384 54.238H300.53V56.529C301.033 55.6977 301.623 55.079 302.299 54.673C302.995 54.267 303.691 54.064 304.387 54.064C304.523 54.064 304.648 54.0737 304.764 54.093V56.355C304.416 56.239 304.068 56.181 303.72 56.181C302.386 56.181 301.323 56.8287 300.53 58.124V71H298.384V54.238ZM52.829 114.261C51.7463 114.261 50.8763 114.048 50.219 113.623C49.5617 113.198 49.0783 112.511 48.769 111.564C48.4597 110.617 48.305 109.331 48.305 107.707V103.473C48.305 101.83 48.4597 100.544 48.769 99.616C49.0977 98.6687 49.5907 97.992 50.248 97.586C50.9247 97.18 51.7947 96.977 52.858 96.977C54.018 96.977 54.9073 97.2283 55.526 97.731C56.164 98.2143 56.599 98.949 56.831 99.935C57.0823 100.921 57.208 102.245 57.208 103.908V105.416H50.422V108.345C50.422 109.95 50.6057 111.071 50.973 111.709C51.3403 112.347 51.959 112.666 52.829 112.666C53.5637 112.666 54.1243 112.434 54.511 111.97C54.917 111.506 55.12 110.665 55.12 109.447V108.287H57.179V109.215C57.179 110.839 56.8407 112.086 56.164 112.956C55.4873 113.826 54.3757 114.261 52.829 114.261ZM55.12 104.198V102.806C55.12 101.801 55.062 101.008 54.946 100.428C54.8493 99.848 54.6367 99.3937 54.308 99.065C53.9793 98.7363 53.4863 98.572 52.829 98.572C52.2297 98.572 51.756 98.7073 51.408 98.978C51.06 99.2293 50.8087 99.6837 50.654 100.341C50.4993 100.979 50.422 101.888 50.422 103.067V104.198H55.12ZM62.7651 105.242L58.9951 97.238H61.0831L63.9541 103.386L66.7091 97.238H68.8551L64.9401 105.474L68.9131 114H66.8831L63.7511 107.417L60.8221 114H58.7921L62.7651 105.242ZM70.9687 97.238H73.0857V98.63C73.9557 97.528 75.0287 96.977 76.3047 96.977C77.7741 96.977 78.7697 97.586 79.2917 98.804C79.8331 100.003 80.1037 101.617 80.1037 103.647V107.185C80.1037 109.486 79.8041 111.245 79.2047 112.463C78.6054 113.662 77.5614 114.261 76.0727 114.261C75.0287 114.261 74.0331 113.729 73.0857 112.666V119.51H70.9687V97.238ZM75.7537 112.579C76.6431 112.579 77.2327 112.163 77.5227 111.332C77.8321 110.501 77.9867 109.138 77.9867 107.243V103.647C77.9867 101.849 77.8321 100.563 77.5227 99.79C77.2327 99.0167 76.6237 98.63 75.6957 98.63C74.8257 98.63 73.9557 99.065 73.0857 99.935V111.361C73.8591 112.173 74.7484 112.579 75.7537 112.579ZM87.2665 114.261C86.1838 114.261 85.3138 114.048 84.6565 113.623C83.9992 113.198 83.5158 112.511 83.2065 111.564C82.8972 110.617 82.7425 109.331 82.7425 107.707V103.473C82.7425 101.83 82.8972 100.544 83.2065 99.616C83.5352 98.6687 84.0282 97.992 84.6855 97.586C85.3622 97.18 86.2322 96.977 87.2955 96.977C88.4555 96.977 89.3448 97.2283 89.9635 97.731C90.6015 98.2143 91.0365 98.949 91.2685 99.935C91.5198 100.921 91.6455 102.245 91.6455 103.908V105.416H84.8595V108.345C84.8595 109.95 85.0432 111.071 85.4105 111.709C85.7778 112.347 86.3965 112.666 87.2665 112.666C88.0012 112.666 88.5618 112.434 88.9485 111.97C89.3545 111.506 89.5575 110.665 89.5575 109.447V108.287H91.6165V109.215C91.6165 110.839 91.2782 112.086 90.6015 112.956C89.9248 113.826 88.8132 114.261 87.2665 114.261ZM89.5575 104.198V102.806C89.5575 101.801 89.4995 101.008 89.3835 100.428C89.2868 99.848 89.0742 99.3937 88.7455 99.065C88.4168 98.7363 87.9238 98.572 87.2665 98.572C86.6672 98.572 86.1935 98.7073 85.8455 98.978C85.4975 99.2293 85.2462 99.6837 85.0915 100.341C84.9368 100.979 84.8595 101.888 84.8595 103.067V104.198H89.5575ZM94.6479 97.238H96.7939V99.529C97.2966 98.6977 97.8862 98.079 98.5629 97.673C99.2589 97.267 99.9549 97.064 100.651 97.064C100.786 97.064 100.912 97.0737 101.028 97.093V99.355C100.68 99.239 100.332 99.181 99.9839 99.181C98.6499 99.181 97.5866 99.8287 96.7939 101.124V114H94.6479V97.238ZM103.344 92.047H105.461V94.918H103.344V92.047ZM103.344 97.238H105.461V114H103.344V97.238ZM113.236 114.261C112.154 114.261 111.284 114.048 110.626 113.623C109.969 113.198 109.486 112.511 109.176 111.564C108.867 110.617 108.712 109.331 108.712 107.707V103.473C108.712 101.83 108.867 100.544 109.176 99.616C109.505 98.6687 109.998 97.992 110.655 97.586C111.332 97.18 112.202 96.977 113.265 96.977C114.425 96.977 115.315 97.2283 115.933 97.731C116.571 98.2143 117.006 98.949 117.238 99.935C117.49 100.921 117.615 102.245 117.615 103.908V105.416H110.829V108.345C110.829 109.95 111.013 111.071 111.38 111.709C111.748 112.347 112.366 112.666 113.236 112.666C113.971 112.666 114.532 112.434 114.918 111.97C115.324 111.506 115.527 110.665 115.527 109.447V108.287H117.586V109.215C117.586 110.839 117.248 112.086 116.571 112.956C115.895 113.826 114.783 114.261 113.236 114.261ZM115.527 104.198V102.806C115.527 101.801 115.469 101.008 115.353 100.428C115.257 99.848 115.044 99.3937 114.715 99.065C114.387 98.7363 113.894 98.572 113.236 98.572C112.637 98.572 112.163 98.7073 111.815 98.978C111.467 99.2293 111.216 99.6837 111.061 100.341C110.907 100.979 110.829 101.888 110.829 103.067V104.198H115.527ZM120.473 97.238H122.59V98.978C123.15 98.3593 123.769 97.876 124.446 97.528C125.142 97.1607 125.867 96.977 126.621 96.977C127.452 96.977 128.09 97.2863 128.535 97.905C128.979 98.5237 129.202 99.4033 129.202 100.544V114H127.085V101.008C127.085 100.157 126.949 99.5483 126.679 99.181C126.427 98.8137 126.031 98.63 125.49 98.63C125.026 98.63 124.542 98.775 124.04 99.065C123.537 99.3357 123.054 99.7127 122.59 100.196V114H120.473V97.238ZM136.515 114.261C135.278 114.261 134.33 113.99 133.673 113.449C133.016 112.888 132.571 112.144 132.339 111.216C132.126 110.269 132.02 109.08 132.02 107.649V103.734C132.02 102.11 132.146 100.815 132.397 99.848C132.668 98.8813 133.122 98.166 133.76 97.702C134.417 97.2187 135.336 96.977 136.515 96.977C138.158 96.977 139.28 97.4313 139.879 98.34C140.478 99.2293 140.778 100.563 140.778 102.342V103.154H138.806V102.342C138.806 101.356 138.729 100.592 138.574 100.051C138.439 99.5097 138.207 99.1327 137.878 98.92C137.549 98.688 137.095 98.572 136.515 98.572C135.858 98.572 135.355 98.7267 135.007 99.036C134.678 99.3453 134.446 99.8383 134.311 100.515C134.195 101.172 134.137 102.129 134.137 103.386V108.084C134.137 109.244 134.205 110.153 134.34 110.81C134.475 111.467 134.717 111.941 135.065 112.231C135.413 112.521 135.906 112.666 136.544 112.666C137.201 112.666 137.685 112.531 137.994 112.26C138.323 111.97 138.535 111.545 138.632 110.984C138.748 110.423 138.806 109.64 138.806 108.635V107.707H140.778V108.519C140.778 109.776 140.662 110.82 140.43 111.651C140.217 112.463 139.802 113.101 139.183 113.565C138.564 114.029 137.675 114.261 136.515 114.261ZM147.815 114.261C146.733 114.261 145.863 114.048 145.205 113.623C144.548 113.198 144.065 112.511 143.755 111.564C143.446 110.617 143.291 109.331 143.291 107.707V103.473C143.291 101.83 143.446 100.544 143.755 99.616C144.084 98.6687 144.577 97.992 145.234 97.586C145.911 97.18 146.781 96.977 147.844 96.977C149.004 96.977 149.894 97.2283 150.512 97.731C151.15 98.2143 151.585 98.949 151.817 99.935C152.069 100.921 152.194 102.245 152.194 103.908V105.416H145.408V108.345C145.408 109.95 145.592 111.071 145.959 111.709C146.327 112.347 146.945 112.666 147.815 112.666C148.55 112.666 149.111 112.434 149.497 111.97C149.903 111.506 150.106 110.665 150.106 109.447V108.287H152.165V109.215C152.165 110.839 151.827 112.086 151.15 112.956C150.474 113.826 149.362 114.261 147.815 114.261ZM150.106 104.198V102.806C150.106 101.801 150.048 101.008 149.932 100.428C149.836 99.848 149.623 99.3937 149.294 99.065C148.966 98.7363 148.473 98.572 147.815 98.572C147.216 98.572 146.742 98.7073 146.394 98.978C146.046 99.2293 145.795 99.6837 145.64 100.341C145.486 100.979 145.408 101.888 145.408 103.067V104.198H150.106ZM164.683 114.261C163.252 114.261 162.218 113.72 161.58 112.637C160.961 111.554 160.652 109.756 160.652 107.243V104.14C160.652 101.762 160.932 99.9737 161.493 98.775C162.053 97.5763 163.088 96.977 164.596 96.977C165.678 96.977 166.664 97.4603 167.554 98.427V90.51H169.671V114H167.554V112.811C166.664 113.778 165.707 114.261 164.683 114.261ZM165.118 112.579C165.93 112.579 166.742 112.212 167.554 111.477V99.819C166.664 99.0263 165.833 98.63 165.06 98.63C164.17 98.63 163.561 99.007 163.233 99.761C162.923 100.515 162.769 101.743 162.769 103.444V107.417C162.769 109.234 162.923 110.549 163.233 111.361C163.561 112.173 164.19 112.579 165.118 112.579ZM177.155 114.261C176.073 114.261 175.203 114.048 174.545 113.623C173.888 113.198 173.405 112.511 173.095 111.564C172.786 110.617 172.631 109.331 172.631 107.707V103.473C172.631 101.83 172.786 100.544 173.095 99.616C173.424 98.6687 173.917 97.992 174.574 97.586C175.251 97.18 176.121 96.977 177.184 96.977C178.344 96.977 179.234 97.2283 179.852 97.731C180.49 98.2143 180.925 98.949 181.157 99.935C181.409 100.921 181.534 102.245 181.534 103.908V105.416H174.748V108.345C174.748 109.95 174.932 111.071 175.299 111.709C175.667 112.347 176.285 112.666 177.155 112.666C177.89 112.666 178.451 112.434 178.837 111.97C179.243 111.506 179.446 110.665 179.446 109.447V108.287H181.505V109.215C181.505 110.839 181.167 112.086 180.49 112.956C179.814 113.826 178.702 114.261 177.155 114.261ZM179.446 104.198V102.806C179.446 101.801 179.388 101.008 179.272 100.428C179.176 99.848 178.963 99.3937 178.634 99.065C178.306 98.7363 177.813 98.572 177.155 98.572C176.556 98.572 176.082 98.7073 175.734 98.978C175.386 99.2293 175.135 99.6837 174.98 100.341C174.826 100.979 174.748 101.888 174.748 103.067V104.198H179.446ZM188.22 114.261C186.905 114.261 185.842 113.836 185.03 112.985C184.237 112.134 183.783 110.974 183.667 109.505L185.436 108.954C185.552 110.23 185.851 111.168 186.335 111.767C186.818 112.366 187.495 112.666 188.365 112.666C189.099 112.666 189.66 112.463 190.047 112.057C190.453 111.632 190.656 111.042 190.656 110.288C190.656 109.186 189.979 108.065 188.626 106.924L186.335 104.952C185.542 104.295 184.962 103.647 184.595 103.009C184.227 102.371 184.044 101.617 184.044 100.747C184.044 99.5677 184.401 98.6493 185.117 97.992C185.851 97.3153 186.828 96.977 188.046 96.977C189.283 96.977 190.23 97.3733 190.888 98.166C191.564 98.9587 191.941 100.032 192.019 101.385L190.511 101.878C190.395 99.674 189.602 98.572 188.133 98.572C187.475 98.572 186.953 98.7557 186.567 99.123C186.18 99.471 185.987 99.964 185.987 100.602C185.987 101.124 186.083 101.578 186.277 101.965C186.47 102.352 186.828 102.777 187.35 103.241L189.728 105.358C190.636 106.17 191.323 106.934 191.787 107.649C192.27 108.345 192.512 109.205 192.512 110.23C192.512 111.506 192.125 112.502 191.352 113.217C190.578 113.913 189.534 114.261 188.22 114.261ZM195.159 92.047H197.276V94.918H195.159V92.047ZM195.159 97.238H197.276V114H195.159V97.238ZM205.109 119.51C203.388 119.51 202.054 119.259 201.107 118.756C200.179 118.253 199.715 117.49 199.715 116.465C199.715 115.692 199.976 114.986 200.498 114.348C201.039 113.71 201.696 113.198 202.47 112.811C201.232 112.482 200.614 111.873 200.614 110.984C200.614 110.443 200.768 109.95 201.078 109.505C201.406 109.041 201.919 108.519 202.615 107.939C201.88 107.398 201.339 106.711 200.991 105.88C200.662 105.029 200.498 104.014 200.498 102.835C200.498 101.134 200.894 99.732 201.687 98.63C202.479 97.528 203.649 96.977 205.196 96.977C206.897 96.977 208.096 97.673 208.792 99.065C208.966 98.7557 209.265 98.4173 209.691 98.05C210.135 97.6633 210.59 97.3733 211.054 97.18L211.489 97.035L212.069 98.514C211.605 98.5913 211.083 98.7847 210.503 99.094C209.942 99.4033 209.546 99.6933 209.314 99.964C209.449 100.331 209.565 100.815 209.662 101.414C209.778 101.994 209.836 102.487 209.836 102.893C209.836 104.691 209.468 106.122 208.734 107.185C207.999 108.229 206.829 108.751 205.225 108.751C204.935 108.751 204.625 108.732 204.297 108.693C203.987 108.635 203.726 108.567 203.514 108.49C202.76 109.244 202.383 109.882 202.383 110.404C202.383 110.675 202.489 110.887 202.702 111.042C202.934 111.177 203.291 111.274 203.775 111.332L206.443 111.738C207.835 111.951 208.879 112.376 209.575 113.014C210.29 113.633 210.648 114.503 210.648 115.624C210.648 116.919 210.145 117.886 209.14 118.524C208.154 119.181 206.81 119.51 205.109 119.51ZM205.225 107.214C206.327 107.214 207.061 106.808 207.429 105.996C207.796 105.184 207.98 104.13 207.98 102.835C207.98 99.935 207.061 98.485 205.225 98.485C204.161 98.485 203.427 98.9103 203.021 99.761C202.615 100.612 202.412 101.636 202.412 102.835C202.412 105.754 203.349 107.214 205.225 107.214ZM205.196 117.799C206.375 117.799 207.293 117.625 207.951 117.277C208.627 116.929 208.966 116.388 208.966 115.653C208.966 115.034 208.743 114.551 208.299 114.203C207.873 113.855 207.042 113.584 205.805 113.391L203.659 113.101C203.021 113.565 202.499 114.01 202.093 114.435C201.706 114.88 201.513 115.382 201.513 115.943C201.513 116.581 201.812 117.045 202.412 117.335C203.011 117.644 203.939 117.799 205.196 117.799ZM213.335 97.238H215.452V98.978C216.013 98.3593 216.631 97.876 217.308 97.528C218.004 97.1607 218.729 96.977 219.483 96.977C220.314 96.977 220.952 97.2863 221.397 97.905C221.842 98.5237 222.064 99.4033 222.064 100.544V114H219.947V101.008C219.947 100.157 219.812 99.5483 219.541 99.181C219.29 98.8137 218.893 98.63 218.352 98.63C217.888 98.63 217.405 98.775 216.902 99.065C216.399 99.3357 215.916 99.7127 215.452 100.196V114H213.335V97.238ZM229.406 114.261C228.323 114.261 227.453 114.048 226.796 113.623C226.139 113.198 225.655 112.511 225.346 111.564C225.037 110.617 224.882 109.331 224.882 107.707V103.473C224.882 101.83 225.037 100.544 225.346 99.616C225.675 98.6687 226.168 97.992 226.825 97.586C227.502 97.18 228.372 96.977 229.435 96.977C230.595 96.977 231.484 97.2283 232.103 97.731C232.741 98.2143 233.176 98.949 233.408 99.935C233.659 100.921 233.785 102.245 233.785 103.908V105.416H226.999V108.345C226.999 109.95 227.183 111.071 227.55 111.709C227.917 112.347 228.536 112.666 229.406 112.666C230.141 112.666 230.701 112.434 231.088 111.97C231.494 111.506 231.697 110.665 231.697 109.447V108.287H233.756V109.215C233.756 110.839 233.418 112.086 232.741 112.956C232.064 113.826 230.953 114.261 229.406 114.261ZM231.697 104.198V102.806C231.697 101.801 231.639 101.008 231.523 100.428C231.426 99.848 231.214 99.3937 230.885 99.065C230.556 98.7363 230.063 98.572 229.406 98.572C228.807 98.572 228.333 98.7073 227.985 98.978C227.637 99.2293 227.386 99.6837 227.231 100.341C227.076 100.979 226.999 101.888 226.999 103.067V104.198H231.697ZM236.788 97.238H238.934V99.529C239.436 98.6977 240.026 98.079 240.703 97.673C241.399 97.267 242.095 97.064 242.791 97.064C242.926 97.064 243.052 97.0737 243.168 97.093V99.355C242.82 99.239 242.472 99.181 242.124 99.181C240.79 99.181 239.726 99.8287 238.934 101.124V114H236.788V97.238ZM255.144 114.203C254.003 114.203 253.211 113.894 252.766 113.275C252.341 112.637 252.128 111.719 252.128 110.52V98.63H250.069V97.238H252.128V92.047H254.245V97.238H257.029V98.63H254.245V110.317C254.245 111.168 254.342 111.757 254.535 112.086C254.728 112.395 255.125 112.55 255.724 112.55C256.091 112.55 256.497 112.502 256.942 112.405V114.029C256.343 114.145 255.743 114.203 255.144 114.203ZM259.328 90.51H261.445V99.007C262.701 97.6537 264.064 96.977 265.534 96.977C266.365 96.977 267.003 97.2863 267.448 97.905C267.892 98.5237 268.115 99.4033 268.115 100.544V114H265.969V101.008C265.969 100.157 265.833 99.5483 265.563 99.181C265.311 98.8137 264.915 98.63 264.374 98.63C263.91 98.63 263.417 98.775 262.895 99.065C262.392 99.355 261.909 99.7417 261.445 100.225V114H259.328V90.51ZM274.15 114.261C273.145 114.261 272.333 113.903 271.714 113.188C271.095 112.473 270.786 111.583 270.786 110.52C270.786 109.418 270.999 108.509 271.424 107.794C271.869 107.079 272.545 106.441 273.454 105.88C274.363 105.319 275.726 104.633 277.543 103.821V102.632C277.543 101.588 277.475 100.776 277.34 100.196C277.224 99.616 277.011 99.2003 276.702 98.949C276.412 98.6977 275.996 98.572 275.455 98.572C273.889 98.572 273.106 99.529 273.106 101.443V102.023L271.018 101.994C271.037 100.273 271.405 99.007 272.12 98.195C272.835 97.383 273.986 96.977 275.571 96.977C277.04 96.977 278.084 97.4217 278.703 98.311C279.341 99.2003 279.66 100.602 279.66 102.516V110.665C279.66 111.206 279.67 111.825 279.689 112.521C279.728 113.217 279.766 113.71 279.805 114H277.92L277.601 111.68C277.35 112.415 276.915 113.033 276.296 113.536C275.697 114.019 274.981 114.261 274.15 114.261ZM274.817 112.463C275.397 112.463 275.919 112.27 276.383 111.883C276.866 111.477 277.253 111.003 277.543 110.462V105.242C276.228 105.938 275.271 106.479 274.672 106.866C274.092 107.253 273.647 107.688 273.338 108.171C273.048 108.635 272.903 109.244 272.903 109.998C272.903 110.829 273.077 111.448 273.425 111.854C273.792 112.26 274.256 112.463 274.817 112.463ZM286.636 114.203C285.495 114.203 284.703 113.894 284.258 113.275C283.833 112.637 283.62 111.719 283.62 110.52V98.63H281.561V97.238H283.62V92.047H285.737V97.238H288.521V98.63H285.737V110.317C285.737 111.168 285.834 111.757 286.027 112.086C286.22 112.395 286.617 112.55 287.216 112.55C287.583 112.55 287.989 112.502 288.434 112.405V114.029C287.835 114.145 287.235 114.203 286.636 114.203ZM301.843 114.261C300.76 114.261 299.765 113.729 298.856 112.666V114H296.739V90.51H298.856V98.63C299.223 98.1467 299.678 97.7503 300.219 97.441C300.76 97.1317 301.369 96.977 302.046 96.977C303.515 96.977 304.521 97.586 305.062 98.804C305.603 100.022 305.874 101.636 305.874 103.647V107.185C305.874 109.486 305.574 111.245 304.975 112.463C304.376 113.662 303.332 114.261 301.843 114.261ZM301.466 112.579C302.375 112.579 302.974 112.163 303.264 111.332C303.573 110.501 303.728 109.138 303.728 107.243V103.647C303.728 101.849 303.573 100.563 303.264 99.79C302.974 99.0167 302.365 98.63 301.437 98.63C300.586 98.63 299.726 99.065 298.856 99.935V111.361C299.591 112.173 300.461 112.579 301.466 112.579ZM309.064 90.51H311.181V114H309.064V90.51ZM318.842 114.261C317.759 114.261 316.889 114.048 316.232 113.623C315.574 113.198 315.091 112.511 314.782 111.564C314.472 110.617 314.318 109.331 314.318 107.707V103.473C314.318 101.83 314.472 100.544 314.782 99.616C315.11 98.6687 315.603 97.992 316.261 97.586C316.937 97.18 317.807 96.977 318.871 96.977C320.031 96.977 320.92 97.2283 321.539 97.731C322.177 98.2143 322.612 98.949 322.844 99.935C323.095 100.921 323.221 102.245 323.221 103.908V105.416H316.435V108.345C316.435 109.95 316.618 111.071 316.986 111.709C317.353 112.347 317.972 112.666 318.842 112.666C319.576 112.666 320.137 112.434 320.524 111.97C320.93 111.506 321.133 110.665 321.133 109.447V108.287H323.192V109.215C323.192 110.839 322.853 112.086 322.177 112.956C321.5 113.826 320.388 114.261 318.842 114.261ZM321.133 104.198V102.806C321.133 101.801 321.075 101.008 320.959 100.428C320.862 99.848 320.649 99.3937 320.321 99.065C319.992 98.7363 319.499 98.572 318.842 98.572C318.242 98.572 317.769 98.7073 317.421 98.978C317.073 99.2293 316.821 99.6837 316.667 100.341C316.512 100.979 316.435 101.888 316.435 103.067V104.198H321.133ZM326.078 97.238H328.195V98.978C328.756 98.3593 329.374 97.876 330.051 97.528C330.747 97.1607 331.472 96.977 332.226 96.977C333.057 96.977 333.695 97.2863 334.14 97.905C334.585 98.5237 334.807 99.4033 334.807 100.544V114H332.69V101.008C332.69 100.157 332.555 99.5483 332.284 99.181C332.033 98.8137 331.636 98.63 331.095 98.63C330.631 98.63 330.148 98.775 329.645 99.065C329.142 99.3357 328.659 99.7127 328.195 100.196V114H326.078V97.238ZM341.656 114.261C340.226 114.261 339.191 113.72 338.553 112.637C337.935 111.554 337.625 109.756 337.625 107.243V104.14C337.625 101.762 337.906 99.9737 338.466 98.775C339.027 97.5763 340.061 96.977 341.569 96.977C342.652 96.977 343.638 97.4603 344.527 98.427V90.51H346.644V114H344.527V112.811C343.638 113.778 342.681 114.261 341.656 114.261ZM342.091 112.579C342.903 112.579 343.715 112.212 344.527 111.477V99.819C343.638 99.0263 342.807 98.63 342.033 98.63C341.144 98.63 340.535 99.007 340.206 99.761C339.897 100.515 339.742 101.743 339.742 103.444V107.417C339.742 109.234 339.897 110.549 340.206 111.361C340.535 112.173 341.163 112.579 342.091 112.579ZM353.752 114.261C352.437 114.261 351.374 113.836 350.562 112.985C349.769 112.134 349.315 110.974 349.199 109.505L350.968 108.954C351.084 110.23 351.383 111.168 351.867 111.767C352.35 112.366 353.027 112.666 353.897 112.666C354.631 112.666 355.192 112.463 355.579 112.057C355.985 111.632 356.188 111.042 356.188 110.288C356.188 109.186 355.511 108.065 354.158 106.924L351.867 104.952C351.074 104.295 350.494 103.647 350.127 103.009C349.759 102.371 349.576 101.617 349.576 100.747C349.576 99.5677 349.933 98.6493 350.649 97.992C351.383 97.3153 352.36 96.977 353.578 96.977C354.815 96.977 355.762 97.3733 356.42 98.166C357.096 98.9587 357.473 100.032 357.551 101.385L356.043 101.878C355.927 99.674 355.134 98.572 353.665 98.572C353.007 98.572 352.485 98.7557 352.099 99.123C351.712 99.471 351.519 99.964 351.519 100.602C351.519 101.124 351.615 101.578 351.809 101.965C352.002 102.352 352.36 102.777 352.882 103.241L355.26 105.358C356.168 106.17 356.855 106.934 357.319 107.649C357.802 108.345 358.044 109.205 358.044 110.23C358.044 111.506 357.657 112.502 356.884 113.217C356.11 113.913 355.066 114.261 353.752 114.261ZM53.757 157.261C52.6743 157.261 51.6787 156.729 50.77 155.666V157H48.653V133.51H50.77V141.63C51.1373 141.147 51.5917 140.75 52.133 140.441C52.6743 140.132 53.2833 139.977 53.96 139.977C55.4293 139.977 56.4347 140.586 56.976 141.804C57.5173 143.022 57.788 144.636 57.788 146.647V150.185C57.788 152.486 57.4883 154.245 56.889 155.463C56.2897 156.662 55.2457 157.261 53.757 157.261ZM53.38 155.579C54.2887 155.579 54.888 155.163 55.178 154.332C55.4873 153.501 55.642 152.138 55.642 150.243V146.647C55.642 144.849 55.4873 143.563 55.178 142.79C54.888 142.017 54.279 141.63 53.351 141.63C52.5003 141.63 51.64 142.065 50.77 142.935V154.361C51.5047 155.173 52.3747 155.579 53.38 155.579ZM64.8935 157.261C63.8108 157.261 62.9408 157.048 62.2835 156.623C61.6261 156.198 61.1428 155.511 60.8335 154.564C60.5241 153.617 60.3695 152.331 60.3695 150.707V146.473C60.3695 144.83 60.5241 143.544 60.8335 142.616C61.1621 141.669 61.6551 140.992 62.3125 140.586C62.9891 140.18 63.8591 139.977 64.9225 139.977C66.0825 139.977 66.9718 140.228 67.5905 140.731C68.2285 141.214 68.6635 141.949 68.8955 142.935C69.1468 143.921 69.2725 145.245 69.2725 146.908V148.416H62.4865V151.345C62.4865 152.95 62.6701 154.071 63.0375 154.709C63.4048 155.347 64.0235 155.666 64.8935 155.666C65.6281 155.666 66.1888 155.434 66.5755 154.97C66.9815 154.506 67.1845 153.665 67.1845 152.447V151.287H69.2435V152.215C69.2435 153.839 68.9051 155.086 68.2285 155.956C67.5518 156.826 66.4401 157.261 64.8935 157.261ZM67.1845 147.198V145.806C67.1845 144.801 67.1265 144.008 67.0105 143.428C66.9138 142.848 66.7011 142.394 66.3725 142.065C66.0438 141.736 65.5508 141.572 64.8935 141.572C64.2941 141.572 63.8205 141.707 63.4725 141.978C63.1245 142.229 62.8731 142.684 62.7185 143.341C62.5638 143.979 62.4865 144.888 62.4865 146.067V147.198H67.1845ZM72.1589 133.51H74.2759V142.007C75.5325 140.654 76.8955 139.977 78.3649 139.977C79.1962 139.977 79.8342 140.286 80.2789 140.905C80.7235 141.524 80.9459 142.403 80.9459 143.544V157H78.7999V144.008C78.7999 143.157 78.6645 142.548 78.3939 142.181C78.1425 141.814 77.7462 141.63 77.2049 141.63C76.7409 141.63 76.2479 141.775 75.7259 142.065C75.2232 142.355 74.7399 142.742 74.2759 143.225V157H72.1589V133.51ZM86.981 157.261C85.9757 157.261 85.1637 156.903 84.545 156.188C83.9264 155.473 83.617 154.583 83.617 153.52C83.617 152.418 83.8297 151.509 84.255 150.794C84.6997 150.079 85.3764 149.441 86.285 148.88C87.1937 148.319 88.5567 147.633 90.374 146.821V145.632C90.374 144.588 90.3064 143.776 90.171 143.196C90.055 142.616 89.8424 142.2 89.533 141.949C89.243 141.698 88.8274 141.572 88.286 141.572C86.72 141.572 85.937 142.529 85.937 144.443V145.023L83.849 144.994C83.8684 143.273 84.2357 142.007 84.951 141.195C85.6664 140.383 86.8167 139.977 88.402 139.977C89.8714 139.977 90.9154 140.422 91.534 141.311C92.172 142.2 92.491 143.602 92.491 145.516V153.665C92.491 154.206 92.5007 154.825 92.52 155.521C92.5587 156.217 92.5974 156.71 92.636 157H90.751L90.432 154.68C90.1807 155.415 89.7457 156.033 89.127 156.536C88.5277 157.019 87.8124 157.261 86.981 157.261ZM87.648 155.463C88.228 155.463 88.75 155.27 89.214 154.883C89.6974 154.477 90.084 154.003 90.374 153.462V148.242C89.0594 148.938 88.1024 149.479 87.503 149.866C86.923 150.253 86.4784 150.688 86.169 151.171C85.879 151.635 85.734 152.244 85.734 152.998C85.734 153.829 85.908 154.448 86.256 154.854C86.6234 155.26 87.0874 155.463 87.648 155.463ZM94.4204 140.238H96.5664L99.2924 154.564L101.989 140.238H104.048L100.539 157H98.0454L94.4204 140.238ZM106.431 135.047H108.548V137.918H106.431V135.047ZM106.431 140.238H108.548V157H106.431V140.238ZM116.265 157.261C114.602 157.261 113.442 156.749 112.785 155.724C112.128 154.68 111.799 153.085 111.799 150.939V146.299C111.799 144.153 112.128 142.568 112.785 141.543C113.442 140.499 114.602 139.977 116.265 139.977C117.947 139.977 119.117 140.499 119.774 141.543C120.431 142.568 120.76 144.153 120.76 146.299V150.939C120.76 153.085 120.431 154.68 119.774 155.724C119.117 156.749 117.947 157.261 116.265 157.261ZM116.265 155.666C116.961 155.666 117.473 155.482 117.802 155.115C118.15 154.748 118.372 154.255 118.469 153.636C118.566 152.998 118.614 152.138 118.614 151.055V146.183C118.614 145.1 118.566 144.25 118.469 143.631C118.372 142.993 118.15 142.49 117.802 142.123C117.473 141.756 116.961 141.572 116.265 141.572C115.569 141.572 115.057 141.756 114.728 142.123C114.399 142.49 114.187 142.993 114.09 143.631C113.993 144.25 113.945 145.1 113.945 146.183V151.055C113.945 152.138 113.993 152.998 114.09 153.636C114.187 154.255 114.399 154.748 114.728 155.115C115.057 155.482 115.569 155.666 116.265 155.666ZM123.846 140.238H125.992V142.529C126.495 141.698 127.084 141.079 127.761 140.673C128.457 140.267 129.153 140.064 129.849 140.064C129.984 140.064 130.11 140.074 130.226 140.093V142.355C129.878 142.239 129.53 142.181 129.182 142.181C127.848 142.181 126.785 142.829 125.992 144.124V157H123.846V140.238ZM141.129 157.261C140.124 157.261 139.312 156.903 138.693 156.188C138.075 155.473 137.765 154.583 137.765 153.52C137.765 152.418 137.978 151.509 138.403 150.794C138.848 150.079 139.525 149.441 140.433 148.88C141.342 148.319 142.705 147.633 144.522 146.821V145.632C144.522 144.588 144.455 143.776 144.319 143.196C144.203 142.616 143.991 142.2 143.681 141.949C143.391 141.698 142.976 141.572 142.434 141.572C140.868 141.572 140.085 142.529 140.085 144.443V145.023L137.997 144.994C138.017 143.273 138.384 142.007 139.099 141.195C139.815 140.383 140.965 139.977 142.55 139.977C144.02 139.977 145.064 140.422 145.682 141.311C146.32 142.2 146.639 143.602 146.639 145.516V153.665C146.639 154.206 146.649 154.825 146.668 155.521C146.707 156.217 146.746 156.71 146.784 157H144.899L144.58 154.68C144.329 155.415 143.894 156.033 143.275 156.536C142.676 157.019 141.961 157.261 141.129 157.261ZM141.796 155.463C142.376 155.463 142.898 155.27 143.362 154.883C143.846 154.477 144.232 154.003 144.522 153.462V148.242C143.208 148.938 142.251 149.479 141.651 149.866C141.071 150.253 140.627 150.688 140.317 151.171C140.027 151.635 139.882 152.244 139.882 152.998C139.882 153.829 140.056 154.448 140.404 154.854C140.772 155.26 141.236 155.463 141.796 155.463ZM149.756 140.238H151.873V141.978C152.434 141.359 153.052 140.876 153.729 140.528C154.425 140.161 155.15 139.977 155.904 139.977C156.735 139.977 157.373 140.286 157.818 140.905C158.263 141.524 158.485 142.403 158.485 143.544V157H156.368V144.008C156.368 143.157 156.233 142.548 155.962 142.181C155.711 141.814 155.314 141.63 154.773 141.63C154.309 141.63 153.826 141.775 153.323 142.065C152.82 142.336 152.337 142.713 151.873 143.196V157H149.756V140.238ZM164.522 157.261C163.517 157.261 162.705 156.903 162.086 156.188C161.467 155.473 161.158 154.583 161.158 153.52C161.158 152.418 161.371 151.509 161.796 150.794C162.241 150.079 162.917 149.441 163.826 148.88C164.735 148.319 166.098 147.633 167.915 146.821V145.632C167.915 144.588 167.847 143.776 167.712 143.196C167.596 142.616 167.383 142.2 167.074 141.949C166.784 141.698 166.368 141.572 165.827 141.572C164.261 141.572 163.478 142.529 163.478 144.443V145.023L161.39 144.994C161.409 143.273 161.777 142.007 162.492 141.195C163.207 140.383 164.358 139.977 165.943 139.977C167.412 139.977 168.456 140.422 169.075 141.311C169.713 142.2 170.032 143.602 170.032 145.516V153.665C170.032 154.206 170.042 154.825 170.061 155.521C170.1 156.217 170.138 156.71 170.177 157H168.292L167.973 154.68C167.722 155.415 167.287 156.033 166.668 156.536C166.069 157.019 165.353 157.261 164.522 157.261ZM165.189 155.463C165.769 155.463 166.291 155.27 166.755 154.883C167.238 154.477 167.625 154.003 167.915 153.462V148.242C166.6 148.938 165.643 149.479 165.044 149.866C164.464 150.253 164.019 150.688 163.71 151.171C163.42 151.635 163.275 152.244 163.275 152.998C163.275 153.829 163.449 154.448 163.797 154.854C164.164 155.26 164.628 155.463 165.189 155.463ZM173.438 133.51H175.555V157H173.438V133.51ZM178.547 159.523C179.9 159.523 180.809 159.378 181.273 159.088C181.737 158.798 181.969 158.363 181.969 157.783C181.969 157.416 181.882 156.894 181.708 156.217C181.553 155.521 181.456 155.115 181.418 154.999L177.967 140.238H180.084L182.984 154.506L185.797 140.238H187.943L183.883 158.189C183.631 159.252 183.129 160.016 182.375 160.48C181.621 160.944 180.528 161.176 179.098 161.176H178.547V159.523ZM193.884 157.261C192.569 157.261 191.506 156.836 190.694 155.985C189.901 155.134 189.447 153.974 189.331 152.505L191.1 151.954C191.216 153.23 191.515 154.168 191.999 154.767C192.482 155.366 193.159 155.666 194.029 155.666C194.763 155.666 195.324 155.463 195.711 155.057C196.117 154.632 196.32 154.042 196.32 153.288C196.32 152.186 195.643 151.065 194.29 149.924L191.999 147.952C191.206 147.295 190.626 146.647 190.259 146.009C189.891 145.371 189.708 144.617 189.708 143.747C189.708 142.568 190.065 141.649 190.781 140.992C191.515 140.315 192.492 139.977 193.71 139.977C194.947 139.977 195.894 140.373 196.552 141.166C197.228 141.959 197.605 143.032 197.683 144.385L196.175 144.878C196.059 142.674 195.266 141.572 193.797 141.572C193.139 141.572 192.617 141.756 192.231 142.123C191.844 142.471 191.651 142.964 191.651 143.602C191.651 144.124 191.747 144.578 191.941 144.965C192.134 145.352 192.492 145.777 193.014 146.241L195.392 148.358C196.3 149.17 196.987 149.934 197.451 150.649C197.934 151.345 198.176 152.205 198.176 153.23C198.176 154.506 197.789 155.502 197.016 156.217C196.242 156.913 195.198 157.261 193.884 157.261ZM200.823 135.047H202.94V137.918H200.823V135.047ZM200.823 140.238H202.94V157H200.823V140.238ZM210.338 157.261C209.023 157.261 207.96 156.836 207.148 155.985C206.355 155.134 205.901 153.974 205.785 152.505L207.554 151.954C207.67 153.23 207.969 154.168 208.453 154.767C208.936 155.366 209.613 155.666 210.483 155.666C211.217 155.666 211.778 155.463 212.165 155.057C212.571 154.632 212.774 154.042 212.774 153.288C212.774 152.186 212.097 151.065 210.744 149.924L208.453 147.952C207.66 147.295 207.08 146.647 206.713 146.009C206.345 145.371 206.162 144.617 206.162 143.747C206.162 142.568 206.519 141.649 207.235 140.992C207.969 140.315 208.946 139.977 210.164 139.977C211.401 139.977 212.348 140.373 213.006 141.166C213.682 141.959 214.059 143.032 214.137 144.385L212.629 144.878C212.513 142.674 211.72 141.572 210.251 141.572C209.593 141.572 209.071 141.756 208.685 142.123C208.298 142.471 208.105 142.964 208.105 143.602C208.105 144.124 208.201 144.578 208.395 144.965C208.588 145.352 208.946 145.777 209.468 146.241L211.846 148.358C212.754 149.17 213.441 149.934 213.905 150.649C214.388 151.345 214.63 152.205 214.63 153.23C214.63 154.506 214.243 155.502 213.47 156.217C212.696 156.913 211.652 157.261 210.338 157.261ZM225.864 157.261C224.859 157.261 224.047 156.903 223.428 156.188C222.809 155.473 222.5 154.583 222.5 153.52C222.5 152.418 222.713 151.509 223.138 150.794C223.583 150.079 224.259 149.441 225.168 148.88C226.077 148.319 227.44 147.633 229.257 146.821V145.632C229.257 144.588 229.189 143.776 229.054 143.196C228.938 142.616 228.725 142.2 228.416 141.949C228.126 141.698 227.71 141.572 227.169 141.572C225.603 141.572 224.82 142.529 224.82 144.443V145.023L222.732 144.994C222.751 143.273 223.119 142.007 223.834 141.195C224.549 140.383 225.7 139.977 227.285 139.977C228.754 139.977 229.798 140.422 230.417 141.311C231.055 142.2 231.374 143.602 231.374 145.516V153.665C231.374 154.206 231.384 154.825 231.403 155.521C231.442 156.217 231.48 156.71 231.519 157H229.634L229.315 154.68C229.064 155.415 228.629 156.033 228.01 156.536C227.411 157.019 226.695 157.261 225.864 157.261ZM226.531 155.463C227.111 155.463 227.633 155.27 228.097 154.883C228.58 154.477 228.967 154.003 229.257 153.462V148.242C227.942 148.938 226.985 149.479 226.386 149.866C225.806 150.253 225.361 150.688 225.052 151.171C224.762 151.635 224.617 152.244 224.617 152.998C224.617 153.829 224.791 154.448 225.139 154.854C225.506 155.26 225.97 155.463 226.531 155.463ZM234.49 140.238H236.607V141.978C237.168 141.359 237.787 140.876 238.463 140.528C239.159 140.161 239.884 139.977 240.638 139.977C241.47 139.977 242.108 140.286 242.552 140.905C242.997 141.524 243.219 142.403 243.219 143.544V157H241.102V144.008C241.102 143.157 240.967 142.548 240.696 142.181C240.445 141.814 240.049 141.63 239.507 141.63C239.043 141.63 238.56 141.775 238.057 142.065C237.555 142.336 237.071 142.713 236.607 143.196V157H234.49V140.238ZM250.068 157.261C248.638 157.261 247.603 156.72 246.965 155.637C246.347 154.554 246.037 152.756 246.037 150.243V147.14C246.037 144.762 246.318 142.974 246.878 141.775C247.439 140.576 248.473 139.977 249.981 139.977C251.064 139.977 252.05 140.46 252.939 141.427V133.51H255.056V157H252.939V155.811C252.05 156.778 251.093 157.261 250.068 157.261ZM250.503 155.579C251.315 155.579 252.127 155.212 252.939 154.477V142.819C252.05 142.026 251.219 141.63 250.445 141.63C249.556 141.63 248.947 142.007 248.618 142.761C248.309 143.515 248.154 144.743 248.154 146.444V150.417C248.154 152.234 248.309 153.549 248.618 154.361C248.947 155.173 249.575 155.579 250.503 155.579ZM267.967 157.261C266.536 157.261 265.502 156.72 264.864 155.637C264.245 154.554 263.936 152.756 263.936 150.243V147.14C263.936 144.762 264.216 142.974 264.777 141.775C265.338 140.576 266.372 139.977 267.88 139.977C268.963 139.977 269.949 140.46 270.838 141.427V133.51H272.955V157H270.838V155.811C269.949 156.778 268.992 157.261 267.967 157.261ZM268.402 155.579C269.214 155.579 270.026 155.212 270.838 154.477V142.819C269.949 142.026 269.117 141.63 268.344 141.63C267.455 141.63 266.846 142.007 266.517 142.761C266.208 143.515 266.053 144.743 266.053 146.444V150.417C266.053 152.234 266.208 153.549 266.517 154.361C266.846 155.173 267.474 155.579 268.402 155.579ZM280.439 157.261C279.357 157.261 278.487 157.048 277.829 156.623C277.172 156.198 276.689 155.511 276.379 154.564C276.07 153.617 275.915 152.331 275.915 150.707V146.473C275.915 144.83 276.07 143.544 276.379 142.616C276.708 141.669 277.201 140.992 277.858 140.586C278.535 140.18 279.405 139.977 280.468 139.977C281.628 139.977 282.518 140.228 283.136 140.731C283.774 141.214 284.209 141.949 284.441 142.935C284.693 143.921 284.818 145.245 284.818 146.908V148.416H278.032V151.345C278.032 152.95 278.216 154.071 278.583 154.709C278.951 155.347 279.569 155.666 280.439 155.666C281.174 155.666 281.735 155.434 282.121 154.97C282.527 154.506 282.73 153.665 282.73 152.447V151.287H284.789V152.215C284.789 153.839 284.451 155.086 283.774 155.956C283.098 156.826 281.986 157.261 280.439 157.261ZM282.73 147.198V145.806C282.73 144.801 282.672 144.008 282.556 143.428C282.46 142.848 282.247 142.394 281.918 142.065C281.59 141.736 281.097 141.572 280.439 141.572C279.84 141.572 279.366 141.707 279.018 141.978C278.67 142.229 278.419 142.684 278.264 143.341C278.11 143.979 278.032 144.888 278.032 146.067V147.198H282.73ZM291.504 157.261C290.189 157.261 289.126 156.836 288.314 155.985C287.521 155.134 287.067 153.974 286.951 152.505L288.72 151.954C288.836 153.23 289.135 154.168 289.619 154.767C290.102 155.366 290.779 155.666 291.649 155.666C292.383 155.666 292.944 155.463 293.331 155.057C293.737 154.632 293.94 154.042 293.94 153.288C293.94 152.186 293.263 151.065 291.91 149.924L289.619 147.952C288.826 147.295 288.246 146.647 287.879 146.009C287.511 145.371 287.328 144.617 287.328 143.747C287.328 142.568 287.685 141.649 288.401 140.992C289.135 140.315 290.112 139.977 291.33 139.977C292.567 139.977 293.514 140.373 294.172 141.166C294.848 141.959 295.225 143.032 295.303 144.385L293.795 144.878C293.679 142.674 292.886 141.572 291.417 141.572C290.759 141.572 290.237 141.756 289.851 142.123C289.464 142.471 289.271 142.964 289.271 143.602C289.271 144.124 289.367 144.578 289.561 144.965C289.754 145.352 290.112 145.777 290.634 146.241L293.012 148.358C293.92 149.17 294.607 149.934 295.071 150.649C295.554 151.345 295.796 152.205 295.796 153.23C295.796 154.506 295.409 155.502 294.636 156.217C293.862 156.913 292.818 157.261 291.504 157.261ZM298.443 135.047H300.56V137.918H298.443V135.047ZM298.443 140.238H300.56V157H298.443V140.238ZM308.393 162.51C306.672 162.51 305.338 162.259 304.391 161.756C303.463 161.253 302.999 160.49 302.999 159.465C302.999 158.692 303.26 157.986 303.782 157.348C304.323 156.71 304.981 156.198 305.754 155.811C304.517 155.482 303.898 154.873 303.898 153.984C303.898 153.443 304.053 152.95 304.362 152.505C304.691 152.041 305.203 151.519 305.899 150.939C305.164 150.398 304.623 149.711 304.275 148.88C303.946 148.029 303.782 147.014 303.782 145.835C303.782 144.134 304.178 142.732 304.971 141.63C305.764 140.528 306.933 139.977 308.48 139.977C310.181 139.977 311.38 140.673 312.076 142.065C312.25 141.756 312.55 141.417 312.975 141.05C313.42 140.663 313.874 140.373 314.338 140.18L314.773 140.035L315.353 141.514C314.889 141.591 314.367 141.785 313.787 142.094C313.226 142.403 312.83 142.693 312.598 142.964C312.733 143.331 312.849 143.815 312.946 144.414C313.062 144.994 313.12 145.487 313.12 145.893C313.12 147.691 312.753 149.122 312.018 150.185C311.283 151.229 310.114 151.751 308.509 151.751C308.219 151.751 307.91 151.732 307.581 151.693C307.272 151.635 307.011 151.567 306.798 151.49C306.044 152.244 305.667 152.882 305.667 153.404C305.667 153.675 305.773 153.887 305.986 154.042C306.218 154.177 306.576 154.274 307.059 154.332L309.727 154.738C311.119 154.951 312.163 155.376 312.859 156.014C313.574 156.633 313.932 157.503 313.932 158.624C313.932 159.919 313.429 160.886 312.424 161.524C311.438 162.181 310.094 162.51 308.393 162.51ZM308.509 150.214C309.611 150.214 310.346 149.808 310.713 148.996C311.08 148.184 311.264 147.13 311.264 145.835C311.264 142.935 310.346 141.485 308.509 141.485C307.446 141.485 306.711 141.91 306.305 142.761C305.899 143.612 305.696 144.636 305.696 145.835C305.696 148.754 306.634 150.214 308.509 150.214ZM308.48 160.799C309.659 160.799 310.578 160.625 311.235 160.277C311.912 159.929 312.25 159.388 312.25 158.653C312.25 158.034 312.028 157.551 311.583 157.203C311.158 156.855 310.326 156.584 309.089 156.391L306.943 156.101C306.305 156.565 305.783 157.01 305.377 157.435C304.99 157.88 304.797 158.382 304.797 158.943C304.797 159.581 305.097 160.045 305.696 160.335C306.295 160.644 307.223 160.799 308.48 160.799ZM316.619 140.238H318.736V141.978C319.297 141.359 319.915 140.876 320.592 140.528C321.288 140.161 322.013 139.977 322.767 139.977C323.598 139.977 324.236 140.286 324.681 140.905C325.126 141.524 325.348 142.403 325.348 143.544V157H323.231V144.008C323.231 143.157 323.096 142.548 322.825 142.181C322.574 141.814 322.177 141.63 321.636 141.63C321.172 141.63 320.689 141.775 320.186 142.065C319.683 142.336 319.2 142.713 318.736 143.196V157H316.619V140.238ZM338.377 157.203C337.237 157.203 336.444 156.894 335.999 156.275C335.574 155.637 335.361 154.719 335.361 153.52V141.63H333.302V140.238H335.361V135.047H337.478V140.238H340.262V141.63H337.478V153.317C337.478 154.168 337.575 154.757 337.768 155.086C337.962 155.395 338.358 155.55 338.957 155.55C339.325 155.55 339.731 155.502 340.175 155.405V157.029C339.576 157.145 338.977 157.203 338.377 157.203ZM346.679 157.261C345.017 157.261 343.857 156.749 343.199 155.724C342.542 154.68 342.213 153.085 342.213 150.939V146.299C342.213 144.153 342.542 142.568 343.199 141.543C343.857 140.499 345.017 139.977 346.679 139.977C348.361 139.977 349.531 140.499 350.188 141.543C350.846 142.568 351.174 144.153 351.174 146.299V150.939C351.174 153.085 350.846 154.68 350.188 155.724C349.531 156.749 348.361 157.261 346.679 157.261ZM346.679 155.666C347.375 155.666 347.888 155.482 348.216 155.115C348.564 154.748 348.787 154.255 348.883 153.636C348.98 152.998 349.028 152.138 349.028 151.055V146.183C349.028 145.1 348.98 144.25 348.883 143.631C348.787 142.993 348.564 142.49 348.216 142.123C347.888 141.756 347.375 141.572 346.679 141.572C345.983 141.572 345.471 141.756 345.142 142.123C344.814 142.49 344.601 142.993 344.504 143.631C344.408 144.25 344.359 145.1 344.359 146.183V151.055C344.359 152.138 344.408 152.998 344.504 153.636C344.601 154.255 344.814 154.748 345.142 155.115C345.471 155.482 345.983 155.666 346.679 155.666ZM52.8 200.261C51.5627 200.261 50.6153 199.99 49.958 199.449C49.3007 198.888 48.856 198.144 48.624 197.216C48.4113 196.269 48.305 195.08 48.305 193.649V189.734C48.305 188.11 48.4307 186.815 48.682 185.848C48.9527 184.881 49.407 184.166 50.045 183.702C50.7023 183.219 51.6207 182.977 52.8 182.977C54.4433 182.977 55.5647 183.431 56.164 184.34C56.7633 185.229 57.063 186.563 57.063 188.342V189.154H55.091V188.342C55.091 187.356 55.0137 186.592 54.859 186.051C54.7237 185.51 54.4917 185.133 54.163 184.92C53.8343 184.688 53.38 184.572 52.8 184.572C52.1427 184.572 51.64 184.727 51.292 185.036C50.9633 185.345 50.7313 185.838 50.596 186.515C50.48 187.172 50.422 188.129 50.422 189.386V194.084C50.422 195.244 50.4897 196.153 50.625 196.81C50.7603 197.467 51.002 197.941 51.35 198.231C51.698 198.521 52.191 198.666 52.829 198.666C53.4863 198.666 53.9697 198.531 54.279 198.26C54.6077 197.97 54.8203 197.545 54.917 196.984C55.033 196.423 55.091 195.64 55.091 194.635V193.707H57.063V194.519C57.063 195.776 56.947 196.82 56.715 197.651C56.5023 198.463 56.0867 199.101 55.468 199.565C54.8493 200.029 53.96 200.261 52.8 200.261ZM60.0405 183.238H62.1865V185.529C62.6892 184.698 63.2788 184.079 63.9555 183.673C64.6515 183.267 65.3475 183.064 66.0435 183.064C66.1788 183.064 66.3045 183.074 66.4205 183.093V185.355C66.0725 185.239 65.7245 185.181 65.3765 185.181C64.0425 185.181 62.9792 185.829 62.1865 187.124V200H60.0405V183.238ZM72.6249 200.261C71.5422 200.261 70.6722 200.048 70.0149 199.623C69.3576 199.198 68.8742 198.511 68.5649 197.564C68.2556 196.617 68.1009 195.331 68.1009 193.707V189.473C68.1009 187.83 68.2556 186.544 68.5649 185.616C68.8936 184.669 69.3866 183.992 70.0439 183.586C70.7206 183.18 71.5906 182.977 72.6539 182.977C73.8139 182.977 74.7032 183.228 75.3219 183.731C75.9599 184.214 76.3949 184.949 76.6269 185.935C76.8782 186.921 77.0039 188.245 77.0039 189.908V191.416H70.2179V194.345C70.2179 195.95 70.4016 197.071 70.7689 197.709C71.1362 198.347 71.7549 198.666 72.6249 198.666C73.3596 198.666 73.9202 198.434 74.3069 197.97C74.7129 197.506 74.9159 196.665 74.9159 195.447V194.287H76.9749V195.215C76.9749 196.839 76.6366 198.086 75.9599 198.956C75.2832 199.826 74.1716 200.261 72.6249 200.261ZM74.9159 190.198V188.806C74.9159 187.801 74.8579 187.008 74.7419 186.428C74.6452 185.848 74.4326 185.394 74.1039 185.065C73.7752 184.736 73.2822 184.572 72.6249 184.572C72.0256 184.572 71.5519 184.707 71.2039 184.978C70.8559 185.229 70.6046 185.684 70.4499 186.341C70.2952 186.979 70.2179 187.888 70.2179 189.067V190.198H74.9159ZM82.7613 200.261C81.756 200.261 80.944 199.903 80.3253 199.188C79.7066 198.473 79.3973 197.583 79.3973 196.52C79.3973 195.418 79.61 194.509 80.0353 193.794C80.48 193.079 81.1566 192.441 82.0653 191.88C82.974 191.319 84.337 190.633 86.1543 189.821V188.632C86.1543 187.588 86.0866 186.776 85.9513 186.196C85.8353 185.616 85.6226 185.2 85.3133 184.949C85.0233 184.698 84.6076 184.572 84.0663 184.572C82.5003 184.572 81.7173 185.529 81.7173 187.443V188.023L79.6293 187.994C79.6486 186.273 80.016 185.007 80.7313 184.195C81.4466 183.383 82.597 182.977 84.1823 182.977C85.6516 182.977 86.6956 183.422 87.3143 184.311C87.9523 185.2 88.2713 186.602 88.2713 188.516V196.665C88.2713 197.206 88.281 197.825 88.3003 198.521C88.339 199.217 88.3776 199.71 88.4163 200H86.5313L86.2123 197.68C85.961 198.415 85.526 199.033 84.9073 199.536C84.308 200.019 83.5926 200.261 82.7613 200.261ZM83.4283 198.463C84.0083 198.463 84.5303 198.27 84.9943 197.883C85.4776 197.477 85.8643 197.003 86.1543 196.462V191.242C84.8396 191.938 83.8826 192.479 83.2833 192.866C82.7033 193.253 82.2586 193.688 81.9493 194.171C81.6593 194.635 81.5143 195.244 81.5143 195.998C81.5143 196.829 81.6883 197.448 82.0363 197.854C82.4036 198.26 82.8676 198.463 83.4283 198.463ZM95.2474 200.203C94.1067 200.203 93.3141 199.894 92.8694 199.275C92.4441 198.637 92.2314 197.719 92.2314 196.52V184.63H90.1724V183.238H92.2314V178.047H94.3484V183.238H97.1324V184.63H94.3484V196.317C94.3484 197.168 94.4451 197.757 94.6384 198.086C94.8317 198.395 95.2281 198.55 95.8274 198.55C96.1947 198.55 96.6007 198.502 97.0454 198.405V200.029C96.4461 200.145 95.8467 200.203 95.2474 200.203ZM103.607 200.261C102.525 200.261 101.655 200.048 100.997 199.623C100.34 199.198 99.8567 198.511 99.5473 197.564C99.238 196.617 99.0833 195.331 99.0833 193.707V189.473C99.0833 187.83 99.238 186.544 99.5473 185.616C99.876 184.669 100.369 183.992 101.026 183.586C101.703 183.18 102.573 182.977 103.636 182.977C104.796 182.977 105.686 183.228 106.304 183.731C106.942 184.214 107.377 184.949 107.609 185.935C107.861 186.921 107.986 188.245 107.986 189.908V191.416H101.2V194.345C101.2 195.95 101.384 197.071 101.751 197.709C102.119 198.347 102.737 198.666 103.607 198.666C104.342 198.666 104.903 198.434 105.289 197.97C105.695 197.506 105.898 196.665 105.898 195.447V194.287H107.957V195.215C107.957 196.839 107.619 198.086 106.942 198.956C106.266 199.826 105.154 200.261 103.607 200.261ZM105.898 190.198V188.806C105.898 187.801 105.84 187.008 105.724 186.428C105.628 185.848 105.415 185.394 105.086 185.065C104.758 184.736 104.265 184.572 103.607 184.572C103.008 184.572 102.534 184.707 102.186 184.978C101.838 185.229 101.587 185.684 101.432 186.341C101.278 186.979 101.2 187.888 101.2 189.067V190.198H105.898ZM120.591 200.261C119.276 200.261 118.213 199.836 117.401 198.985C116.608 198.134 116.154 196.974 116.038 195.505L117.807 194.954C117.923 196.23 118.222 197.168 118.706 197.767C119.189 198.366 119.866 198.666 120.736 198.666C121.47 198.666 122.031 198.463 122.418 198.057C122.824 197.632 123.027 197.042 123.027 196.288C123.027 195.186 122.35 194.065 120.997 192.924L118.706 190.952C117.913 190.295 117.333 189.647 116.966 189.009C116.598 188.371 116.415 187.617 116.415 186.747C116.415 185.568 116.772 184.649 117.488 183.992C118.222 183.315 119.199 182.977 120.417 182.977C121.654 182.977 122.601 183.373 123.259 184.166C123.935 184.959 124.312 186.032 124.39 187.385L122.882 187.878C122.766 185.674 121.973 184.572 120.504 184.572C119.846 184.572 119.324 184.756 118.938 185.123C118.551 185.471 118.358 185.964 118.358 186.602C118.358 187.124 118.454 187.578 118.648 187.965C118.841 188.352 119.199 188.777 119.721 189.241L122.099 191.358C123.007 192.17 123.694 192.934 124.158 193.649C124.641 194.345 124.883 195.205 124.883 196.23C124.883 197.506 124.496 198.502 123.723 199.217C122.949 199.913 121.905 200.261 120.591 200.261ZM127.53 178.047H129.647V180.918H127.53V178.047ZM127.53 183.238H129.647V200H127.53V183.238ZM133.217 183.238H135.189V184.949C135.73 184.292 136.339 183.799 137.016 183.47C137.692 183.122 138.398 182.948 139.133 182.948C140.525 182.948 141.414 183.673 141.801 185.123C142.361 184.408 142.99 183.866 143.686 183.499C144.401 183.132 145.145 182.948 145.919 182.948C146.75 182.948 147.427 183.248 147.949 183.847C148.49 184.446 148.761 185.423 148.761 186.776V200H146.789V186.834C146.789 185.925 146.644 185.297 146.354 184.949C146.064 184.582 145.648 184.398 145.107 184.398C144.604 184.398 144.072 184.553 143.512 184.862C142.951 185.171 142.429 185.597 141.946 186.138C141.984 186.409 142.004 186.621 142.004 186.776V200H140.003V186.834C140.003 185.906 139.858 185.268 139.568 184.92C139.278 184.572 138.862 184.398 138.321 184.398C137.818 184.398 137.296 184.553 136.755 184.862C136.213 185.171 135.691 185.587 135.189 186.109V200H133.217V183.238ZM151.88 183.238H153.997V184.63C154.867 183.528 155.94 182.977 157.216 182.977C158.685 182.977 159.681 183.586 160.203 184.804C160.744 186.003 161.015 187.617 161.015 189.647V193.185C161.015 195.486 160.715 197.245 160.116 198.463C159.517 199.662 158.473 200.261 156.984 200.261C155.94 200.261 154.944 199.729 153.997 198.666V205.51H151.88V183.238ZM156.665 198.579C157.554 198.579 158.144 198.163 158.434 197.332C158.743 196.501 158.898 195.138 158.898 193.243V189.647C158.898 187.849 158.743 186.563 158.434 185.79C158.144 185.017 157.535 184.63 156.607 184.63C155.737 184.63 154.867 185.065 153.997 185.935V197.361C154.77 198.173 155.66 198.579 156.665 198.579ZM164.263 176.51H166.38V200H164.263V176.51ZM174.04 200.261C172.957 200.261 172.087 200.048 171.43 199.623C170.773 199.198 170.289 198.511 169.98 197.564C169.671 196.617 169.516 195.331 169.516 193.707V189.473C169.516 187.83 169.671 186.544 169.98 185.616C170.309 184.669 170.802 183.992 171.459 183.586C172.136 183.18 173.006 182.977 174.069 182.977C175.229 182.977 176.118 183.228 176.737 183.731C177.375 184.214 177.81 184.949 178.042 185.935C178.293 186.921 178.419 188.245 178.419 189.908V191.416H171.633V194.345C171.633 195.95 171.817 197.071 172.184 197.709C172.551 198.347 173.17 198.666 174.04 198.666C174.775 198.666 175.335 198.434 175.722 197.97C176.128 197.506 176.331 196.665 176.331 195.447V194.287H178.39V195.215C178.39 196.839 178.052 198.086 177.375 198.956C176.698 199.826 175.587 200.261 174.04 200.261ZM176.331 190.198V188.806C176.331 187.801 176.273 187.008 176.157 186.428C176.06 185.848 175.848 185.394 175.519 185.065C175.19 184.736 174.697 184.572 174.04 184.572C173.441 184.572 172.967 184.707 172.619 184.978C172.271 185.229 172.02 185.684 171.865 186.341C171.71 186.979 171.633 187.888 171.633 189.067V190.198H176.331ZM186.731 202.523C188.085 202.523 188.993 202.378 189.457 202.088C189.921 201.798 190.153 201.363 190.153 200.783C190.153 200.416 190.066 199.894 189.892 199.217C189.738 198.521 189.641 198.115 189.602 197.999L186.151 183.238H188.268L191.168 197.506L193.981 183.238H196.127L192.067 201.189C191.816 202.252 191.313 203.016 190.559 203.48C189.805 203.944 188.713 204.176 187.282 204.176H186.731V202.523ZM202.445 200.261C201.363 200.261 200.493 200.048 199.835 199.623C199.178 199.198 198.695 198.511 198.385 197.564C198.076 196.617 197.921 195.331 197.921 193.707V189.473C197.921 187.83 198.076 186.544 198.385 185.616C198.714 184.669 199.207 183.992 199.864 183.586C200.541 183.18 201.411 182.977 202.474 182.977C203.634 182.977 204.524 183.228 205.142 183.731C205.78 184.214 206.215 184.949 206.447 185.935C206.699 186.921 206.824 188.245 206.824 189.908V191.416H200.038V194.345C200.038 195.95 200.222 197.071 200.589 197.709C200.957 198.347 201.575 198.666 202.445 198.666C203.18 198.666 203.741 198.434 204.127 197.97C204.533 197.506 204.736 196.665 204.736 195.447V194.287H206.795V195.215C206.795 196.839 206.457 198.086 205.78 198.956C205.104 199.826 203.992 200.261 202.445 200.261ZM204.736 190.198V188.806C204.736 187.801 204.678 187.008 204.562 186.428C204.466 185.848 204.253 185.394 203.924 185.065C203.596 184.736 203.103 184.572 202.445 184.572C201.846 184.572 201.372 184.707 201.024 184.978C200.676 185.229 200.425 185.684 200.27 186.341C200.116 186.979 200.038 187.888 200.038 189.067V190.198H204.736ZM213.655 200.203C212.514 200.203 211.721 199.894 211.277 199.275C210.851 198.637 210.639 197.719 210.639 196.52V184.63H208.58V183.238H210.639V178.047H212.756V183.238H215.54V184.63H212.756V196.317C212.756 197.168 212.852 197.757 213.046 198.086C213.239 198.395 213.635 198.55 214.235 198.55C214.602 198.55 215.008 198.502 215.453 198.405V200.029C214.853 200.145 214.254 200.203 213.655 200.203ZM227.933 200.261C226.851 200.261 225.981 200.048 225.323 199.623C224.666 199.198 224.183 198.511 223.873 197.564C223.564 196.617 223.409 195.331 223.409 193.707V189.473C223.409 187.83 223.564 186.544 223.873 185.616C224.202 184.669 224.695 183.992 225.352 183.586C226.029 183.18 226.899 182.977 227.962 182.977C229.122 182.977 230.012 183.228 230.63 183.731C231.268 184.214 231.703 184.949 231.935 185.935C232.187 186.921 232.312 188.245 232.312 189.908V191.416H225.526V194.345C225.526 195.95 225.71 197.071 226.077 197.709C226.445 198.347 227.063 198.666 227.933 198.666C228.668 198.666 229.229 198.434 229.615 197.97C230.021 197.506 230.224 196.665 230.224 195.447V194.287H232.283V195.215C232.283 196.839 231.945 198.086 231.268 198.956C230.592 199.826 229.48 200.261 227.933 200.261ZM230.224 190.198V188.806C230.224 187.801 230.166 187.008 230.05 186.428C229.954 185.848 229.741 185.394 229.412 185.065C229.084 184.736 228.591 184.572 227.933 184.572C227.334 184.572 226.86 184.707 226.512 184.978C226.164 185.229 225.913 185.684 225.758 186.341C225.604 186.979 225.526 187.888 225.526 189.067V190.198H230.224ZM235.17 183.238H237.287V184.978C237.848 184.359 238.466 183.876 239.143 183.528C239.839 183.161 240.564 182.977 241.318 182.977C242.149 182.977 242.787 183.286 243.232 183.905C243.677 184.524 243.899 185.403 243.899 186.544V200H241.782V187.008C241.782 186.157 241.647 185.548 241.376 185.181C241.125 184.814 240.728 184.63 240.187 184.63C239.723 184.63 239.24 184.775 238.737 185.065C238.234 185.336 237.751 185.713 237.287 186.196V200H235.17V183.238ZM251.299 205.51C249.578 205.51 248.244 205.259 247.297 204.756C246.369 204.253 245.905 203.49 245.905 202.465C245.905 201.692 246.166 200.986 246.688 200.348C247.229 199.71 247.887 199.198 248.66 198.811C247.423 198.482 246.804 197.873 246.804 196.984C246.804 196.443 246.959 195.95 247.268 195.505C247.597 195.041 248.109 194.519 248.805 193.939C248.07 193.398 247.529 192.711 247.181 191.88C246.852 191.029 246.688 190.014 246.688 188.835C246.688 187.134 247.084 185.732 247.877 184.63C248.67 183.528 249.839 182.977 251.386 182.977C253.087 182.977 254.286 183.673 254.982 185.065C255.156 184.756 255.456 184.417 255.881 184.05C256.326 183.663 256.78 183.373 257.244 183.18L257.679 183.035L258.259 184.514C257.795 184.591 257.273 184.785 256.693 185.094C256.132 185.403 255.736 185.693 255.504 185.964C255.639 186.331 255.755 186.815 255.852 187.414C255.968 187.994 256.026 188.487 256.026 188.893C256.026 190.691 255.659 192.122 254.924 193.185C254.189 194.229 253.02 194.751 251.415 194.751C251.125 194.751 250.816 194.732 250.487 194.693C250.178 194.635 249.917 194.567 249.704 194.49C248.95 195.244 248.573 195.882 248.573 196.404C248.573 196.675 248.679 196.887 248.892 197.042C249.124 197.177 249.482 197.274 249.965 197.332L252.633 197.738C254.025 197.951 255.069 198.376 255.765 199.014C256.48 199.633 256.838 200.503 256.838 201.624C256.838 202.919 256.335 203.886 255.33 204.524C254.344 205.181 253 205.51 251.299 205.51ZM251.415 193.214C252.517 193.214 253.252 192.808 253.619 191.996C253.986 191.184 254.17 190.13 254.17 188.835C254.17 185.935 253.252 184.485 251.415 184.485C250.352 184.485 249.617 184.91 249.211 185.761C248.805 186.612 248.602 187.636 248.602 188.835C248.602 191.754 249.54 193.214 251.415 193.214ZM251.386 203.799C252.565 203.799 253.484 203.625 254.141 203.277C254.818 202.929 255.156 202.388 255.156 201.653C255.156 201.034 254.934 200.551 254.489 200.203C254.064 199.855 253.232 199.584 251.995 199.391L249.849 199.101C249.211 199.565 248.689 200.01 248.283 200.435C247.896 200.88 247.703 201.382 247.703 201.943C247.703 202.581 248.003 203.045 248.602 203.335C249.201 203.644 250.129 203.799 251.386 203.799ZM262.425 200.261C261.42 200.261 260.608 199.903 259.989 199.188C259.371 198.473 259.061 197.583 259.061 196.52C259.061 195.418 259.274 194.509 259.699 193.794C260.144 193.079 260.821 192.441 261.729 191.88C262.638 191.319 264.001 190.633 265.818 189.821V188.632C265.818 187.588 265.751 186.776 265.615 186.196C265.499 185.616 265.287 185.2 264.977 184.949C264.687 184.698 264.272 184.572 263.73 184.572C262.164 184.572 261.381 185.529 261.381 187.443V188.023L259.293 187.994C259.313 186.273 259.68 185.007 260.395 184.195C261.111 183.383 262.261 182.977 263.846 182.977C265.316 182.977 266.36 183.422 266.978 184.311C267.616 185.2 267.935 186.602 267.935 188.516V196.665C267.935 197.206 267.945 197.825 267.964 198.521C268.003 199.217 268.042 199.71 268.08 200H266.195L265.876 197.68C265.625 198.415 265.19 199.033 264.571 199.536C263.972 200.019 263.257 200.261 262.425 200.261ZM263.092 198.463C263.672 198.463 264.194 198.27 264.658 197.883C265.142 197.477 265.528 197.003 265.818 196.462V191.242C264.504 191.938 263.547 192.479 262.947 192.866C262.367 193.253 261.923 193.688 261.613 194.171C261.323 194.635 261.178 195.244 261.178 195.998C261.178 196.829 261.352 197.448 261.7 197.854C262.068 198.26 262.532 198.463 263.092 198.463ZM275.315 205.51C273.594 205.51 272.26 205.259 271.313 204.756C270.385 204.253 269.921 203.49 269.921 202.465C269.921 201.692 270.182 200.986 270.704 200.348C271.245 199.71 271.902 199.198 272.676 198.811C271.438 198.482 270.82 197.873 270.82 196.984C270.82 196.443 270.974 195.95 271.284 195.505C271.612 195.041 272.125 194.519 272.821 193.939C272.086 193.398 271.545 192.711 271.197 191.88C270.868 191.029 270.704 190.014 270.704 188.835C270.704 187.134 271.1 185.732 271.893 184.63C272.685 183.528 273.855 182.977 275.402 182.977C277.103 182.977 278.302 183.673 278.998 185.065C279.172 184.756 279.471 184.417 279.897 184.05C280.341 183.663 280.796 183.373 281.26 183.18L281.695 183.035L282.275 184.514C281.811 184.591 281.289 184.785 280.709 185.094C280.148 185.403 279.752 185.693 279.52 185.964C279.655 186.331 279.771 186.815 279.868 187.414C279.984 187.994 280.042 188.487 280.042 188.893C280.042 190.691 279.674 192.122 278.94 193.185C278.205 194.229 277.035 194.751 275.431 194.751C275.141 194.751 274.831 194.732 274.503 194.693C274.193 194.635 273.932 194.567 273.72 194.49C272.966 195.244 272.589 195.882 272.589 196.404C272.589 196.675 272.695 196.887 272.908 197.042C273.14 197.177 273.497 197.274 273.981 197.332L276.649 197.738C278.041 197.951 279.085 198.376 279.781 199.014C280.496 199.633 280.854 200.503 280.854 201.624C280.854 202.919 280.351 203.886 279.346 204.524C278.36 205.181 277.016 205.51 275.315 205.51ZM275.431 193.214C276.533 193.214 277.267 192.808 277.635 191.996C278.002 191.184 278.186 190.13 278.186 188.835C278.186 185.935 277.267 184.485 275.431 184.485C274.367 184.485 273.633 184.91 273.227 185.761C272.821 186.612 272.618 187.636 272.618 188.835C272.618 191.754 273.555 193.214 275.431 193.214ZM275.402 203.799C276.581 203.799 277.499 203.625 278.157 203.277C278.833 202.929 279.172 202.388 279.172 201.653C279.172 201.034 278.949 200.551 278.505 200.203C278.079 199.855 277.248 199.584 276.011 199.391L273.865 199.101C273.227 199.565 272.705 200.01 272.299 200.435C271.912 200.88 271.719 201.382 271.719 201.943C271.719 202.581 272.018 203.045 272.618 203.335C273.217 203.644 274.145 203.799 275.402 203.799ZM283.773 178.047H285.89V180.918H283.773V178.047ZM283.773 183.238H285.89V200H283.773V183.238ZM289.46 183.238H291.577V184.978C292.138 184.359 292.756 183.876 293.433 183.528C294.129 183.161 294.854 182.977 295.608 182.977C296.439 182.977 297.077 183.286 297.522 183.905C297.967 184.524 298.189 185.403 298.189 186.544V200H296.072V187.008C296.072 186.157 295.937 185.548 295.666 185.181C295.415 184.814 295.018 184.63 294.477 184.63C294.013 184.63 293.53 184.775 293.027 185.065C292.524 185.336 292.041 185.713 291.577 186.196V200H289.46V183.238ZM305.589 205.51C303.868 205.51 302.534 205.259 301.587 204.756C300.659 204.253 300.195 203.49 300.195 202.465C300.195 201.692 300.456 200.986 300.978 200.348C301.519 199.71 302.177 199.198 302.95 198.811C301.713 198.482 301.094 197.873 301.094 196.984C301.094 196.443 301.249 195.95 301.558 195.505C301.887 195.041 302.399 194.519 303.095 193.939C302.36 193.398 301.819 192.711 301.471 191.88C301.142 191.029 300.978 190.014 300.978 188.835C300.978 187.134 301.374 185.732 302.167 184.63C302.96 183.528 304.129 182.977 305.676 182.977C307.377 182.977 308.576 183.673 309.272 185.065C309.446 184.756 309.746 184.417 310.171 184.05C310.616 183.663 311.07 183.373 311.534 183.18L311.969 183.035L312.549 184.514C312.085 184.591 311.563 184.785 310.983 185.094C310.422 185.403 310.026 185.693 309.794 185.964C309.929 186.331 310.045 186.815 310.142 187.414C310.258 187.994 310.316 188.487 310.316 188.893C310.316 190.691 309.949 192.122 309.214 193.185C308.479 194.229 307.31 194.751 305.705 194.751C305.415 194.751 305.106 194.732 304.777 194.693C304.468 194.635 304.207 194.567 303.994 194.49C303.24 195.244 302.863 195.882 302.863 196.404C302.863 196.675 302.969 196.887 303.182 197.042C303.414 197.177 303.772 197.274 304.255 197.332L306.923 197.738C308.315 197.951 309.359 198.376 310.055 199.014C310.77 199.633 311.128 200.503 311.128 201.624C311.128 202.919 310.625 203.886 309.62 204.524C308.634 205.181 307.29 205.51 305.589 205.51ZM305.705 193.214C306.807 193.214 307.542 192.808 307.909 191.996C308.276 191.184 308.46 190.13 308.46 188.835C308.46 185.935 307.542 184.485 305.705 184.485C304.642 184.485 303.907 184.91 303.501 185.761C303.095 186.612 302.892 187.636 302.892 188.835C302.892 191.754 303.83 193.214 305.705 193.214ZM305.676 203.799C306.855 203.799 307.774 203.625 308.431 203.277C309.108 202.929 309.446 202.388 309.446 201.653C309.446 201.034 309.224 200.551 308.779 200.203C308.354 199.855 307.522 199.584 306.285 199.391L304.139 199.101C303.501 199.565 302.979 200.01 302.573 200.435C302.186 200.88 301.993 201.382 301.993 201.943C301.993 202.581 302.293 203.045 302.892 203.335C303.491 203.644 304.419 203.799 305.676 203.799ZM52.336 243.261C50.9053 243.261 49.871 242.72 49.233 241.637C48.6143 240.554 48.305 238.756 48.305 236.243V233.14C48.305 230.762 48.5853 228.974 49.146 227.775C49.7067 226.576 50.741 225.977 52.249 225.977C53.3317 225.977 54.3177 226.46 55.207 227.427V219.51H57.324V243H55.207V241.811C54.3177 242.778 53.3607 243.261 52.336 243.261ZM52.771 241.579C53.583 241.579 54.395 241.212 55.207 240.477V228.819C54.3177 228.026 53.4863 227.63 52.713 227.63C51.8237 227.63 51.2147 228.007 50.886 228.761C50.5767 229.515 50.422 230.743 50.422 232.444V236.417C50.422 238.234 50.5767 239.549 50.886 240.361C51.2147 241.173 51.843 241.579 52.771 241.579ZM60.8355 221.047H62.9525V223.918H60.8355V221.047ZM60.8355 226.238H62.9525V243H60.8355V226.238ZM70.7854 248.51C69.0648 248.51 67.7308 248.259 66.7834 247.756C65.8554 247.253 65.3914 246.49 65.3914 245.465C65.3914 244.692 65.6524 243.986 66.1744 243.348C66.7158 242.71 67.3731 242.198 68.1464 241.811C66.9091 241.482 66.2904 240.873 66.2904 239.984C66.2904 239.443 66.4451 238.95 66.7544 238.505C67.0831 238.041 67.5954 237.519 68.2914 236.939C67.5568 236.398 67.0154 235.711 66.6674 234.88C66.3388 234.029 66.1744 233.014 66.1744 231.835C66.1744 230.134 66.5708 228.732 67.3634 227.63C68.1561 226.528 69.3258 225.977 70.8724 225.977C72.5738 225.977 73.7724 226.673 74.4684 228.065C74.6424 227.756 74.9421 227.417 75.3674 227.05C75.8121 226.663 76.2664 226.373 76.7304 226.18L77.1654 226.035L77.7454 227.514C77.2814 227.591 76.7594 227.785 76.1794 228.094C75.6188 228.403 75.2224 228.693 74.9904 228.964C75.1258 229.331 75.2418 229.815 75.3384 230.414C75.4544 230.994 75.5124 231.487 75.5124 231.893C75.5124 233.691 75.1451 235.122 74.4104 236.185C73.6758 237.229 72.5061 237.751 70.9014 237.751C70.6114 237.751 70.3021 237.732 69.9734 237.693C69.6641 237.635 69.4031 237.567 69.1904 237.49C68.4364 238.244 68.0594 238.882 68.0594 239.404C68.0594 239.675 68.1658 239.887 68.3784 240.042C68.6104 240.177 68.9681 240.274 69.4514 240.332L72.1194 240.738C73.5114 240.951 74.5554 241.376 75.2514 242.014C75.9668 242.633 76.3244 243.503 76.3244 244.624C76.3244 245.919 75.8218 246.886 74.8164 247.524C73.8304 248.181 72.4868 248.51 70.7854 248.51ZM70.9014 236.214C72.0034 236.214 72.7381 235.808 73.1054 234.996C73.4728 234.184 73.6564 233.13 73.6564 231.835C73.6564 228.935 72.7381 227.485 70.9014 227.485C69.8381 227.485 69.1034 227.91 68.6974 228.761C68.2914 229.612 68.0884 230.636 68.0884 231.835C68.0884 234.754 69.0261 236.214 70.9014 236.214ZM70.8724 246.799C72.0518 246.799 72.9701 246.625 73.6274 246.277C74.3041 245.929 74.6424 245.388 74.6424 244.653C74.6424 244.034 74.4201 243.551 73.9754 243.203C73.5501 242.855 72.7188 242.584 71.4814 242.391L69.3354 242.101C68.6974 242.565 68.1754 243.01 67.7694 243.435C67.3828 243.88 67.1894 244.382 67.1894 244.943C67.1894 245.581 67.4891 246.045 68.0884 246.335C68.6878 246.644 69.6158 246.799 70.8724 246.799ZM79.2437 221.047H81.3607V223.918H79.2437V221.047ZM79.2437 226.238H81.3607V243H79.2437V226.238ZM88.9036 243.203C87.763 243.203 86.9703 242.894 86.5256 242.275C86.1003 241.637 85.8876 240.719 85.8876 239.52V227.63H83.8286V226.238H85.8876V221.047H88.0046V226.238H90.7886V227.63H88.0046V239.317C88.0046 240.168 88.1013 240.757 88.2946 241.086C88.488 241.395 88.8843 241.55 89.4836 241.55C89.851 241.55 90.257 241.502 90.7016 241.405V243.029C90.1023 243.145 89.503 243.203 88.9036 243.203ZM95.9586 243.261C94.9532 243.261 94.1412 242.903 93.5226 242.188C92.9039 241.473 92.5946 240.583 92.5946 239.52C92.5946 238.418 92.8072 237.509 93.2326 236.794C93.6772 236.079 94.3539 235.441 95.2626 234.88C96.1712 234.319 97.5342 233.633 99.3516 232.821V231.632C99.3516 230.588 99.2839 229.776 99.1486 229.196C99.0326 228.616 98.8199 228.2 98.5106 227.949C98.2206 227.698 97.8049 227.572 97.2636 227.572C95.6976 227.572 94.9146 228.529 94.9146 230.443V231.023L92.8266 230.994C92.8459 229.273 93.2132 228.007 93.9286 227.195C94.6439 226.383 95.7942 225.977 97.3796 225.977C98.8489 225.977 99.8929 226.422 100.512 227.311C101.15 228.2 101.469 229.602 101.469 231.516V239.665C101.469 240.206 101.478 240.825 101.498 241.521C101.536 242.217 101.575 242.71 101.614 243H99.7286L99.4096 240.68C99.1582 241.415 98.7232 242.033 98.1046 242.536C97.5052 243.019 96.7899 243.261 95.9586 243.261ZM96.6256 241.463C97.2056 241.463 97.7276 241.27 98.1916 240.883C98.6749 240.477 99.0616 240.003 99.3516 239.462V234.242C98.0369 234.938 97.0799 235.479 96.4806 235.866C95.9006 236.253 95.4559 236.688 95.1466 237.171C94.8566 237.635 94.7116 238.244 94.7116 238.998C94.7116 239.829 94.8856 240.448 95.2336 240.854C95.6009 241.26 96.0649 241.463 96.6256 241.463ZM104.875 219.51H106.992V243H104.875V219.51ZM120.571 243.261C119.489 243.261 118.619 243.048 117.961 242.623C117.304 242.198 116.821 241.511 116.511 240.564C116.202 239.617 116.047 238.331 116.047 236.707V232.473C116.047 230.83 116.202 229.544 116.511 228.616C116.84 227.669 117.333 226.992 117.99 226.586C118.667 226.18 119.537 225.977 120.6 225.977C121.76 225.977 122.65 226.228 123.268 226.731C123.906 227.214 124.341 227.949 124.573 228.935C124.825 229.921 124.95 231.245 124.95 232.908V234.416H118.164V237.345C118.164 238.95 118.348 240.071 118.715 240.709C119.083 241.347 119.701 241.666 120.571 241.666C121.306 241.666 121.867 241.434 122.253 240.97C122.659 240.506 122.862 239.665 122.862 238.447V237.287H124.921V238.215C124.921 239.839 124.583 241.086 123.906 241.956C123.23 242.826 122.118 243.261 120.571 243.261ZM122.862 233.198V231.806C122.862 230.801 122.804 230.008 122.688 229.428C122.592 228.848 122.379 228.394 122.05 228.065C121.722 227.736 121.229 227.572 120.571 227.572C119.972 227.572 119.498 227.707 119.15 227.978C118.802 228.229 118.551 228.684 118.396 229.341C118.242 229.979 118.164 230.888 118.164 232.067V233.198H122.862ZM127.808 226.238H129.925V227.978C130.485 227.359 131.104 226.876 131.781 226.528C132.477 226.161 133.202 225.977 133.956 225.977C134.787 225.977 135.425 226.286 135.87 226.905C136.314 227.524 136.537 228.403 136.537 229.544V243H134.42V230.008C134.42 229.157 134.284 228.548 134.014 228.181C133.762 227.814 133.366 227.63 132.825 227.63C132.361 227.63 131.877 227.775 131.375 228.065C130.872 228.336 130.389 228.713 129.925 229.196V243H127.808V226.238ZM138.572 226.238H140.718L143.444 240.564L146.141 226.238H148.2L144.691 243H142.197L138.572 226.238ZM150.583 221.047H152.7V223.918H150.583V221.047ZM150.583 226.238H152.7V243H150.583V226.238ZM156.415 226.238H158.561V228.529C159.063 227.698 159.653 227.079 160.33 226.673C161.026 226.267 161.722 226.064 162.418 226.064C162.553 226.064 162.679 226.074 162.795 226.093V228.355C162.447 228.239 162.099 228.181 161.751 228.181C160.417 228.181 159.353 228.829 158.561 230.124V243H156.415V226.238ZM168.941 243.261C167.278 243.261 166.118 242.749 165.461 241.724C164.804 240.68 164.475 239.085 164.475 236.939V232.299C164.475 230.153 164.804 228.568 165.461 227.543C166.118 226.499 167.278 225.977 168.941 225.977C170.623 225.977 171.793 226.499 172.45 227.543C173.107 228.568 173.436 230.153 173.436 232.299V236.939C173.436 239.085 173.107 240.68 172.45 241.724C171.793 242.749 170.623 243.261 168.941 243.261ZM168.941 241.666C169.637 241.666 170.149 241.482 170.478 241.115C170.826 240.748 171.048 240.255 171.145 239.636C171.242 238.998 171.29 238.138 171.29 237.055V232.183C171.29 231.1 171.242 230.25 171.145 229.631C171.048 228.993 170.826 228.49 170.478 228.123C170.149 227.756 169.637 227.572 168.941 227.572C168.245 227.572 167.733 227.756 167.404 228.123C167.075 228.49 166.863 228.993 166.766 229.631C166.669 230.25 166.621 231.1 166.621 232.183V237.055C166.621 238.138 166.669 238.998 166.766 239.636C166.863 240.255 167.075 240.748 167.404 241.115C167.733 241.482 168.245 241.666 168.941 241.666ZM176.377 226.238H178.494V227.978C179.055 227.359 179.673 226.876 180.35 226.528C181.046 226.161 181.771 225.977 182.525 225.977C183.356 225.977 183.994 226.286 184.439 226.905C184.884 227.524 185.106 228.403 185.106 229.544V243H182.989V230.008C182.989 229.157 182.854 228.548 182.583 228.181C182.332 227.814 181.935 227.63 181.394 227.63C180.93 227.63 180.447 227.775 179.944 228.065C179.441 228.336 178.958 228.713 178.494 229.196V243H176.377V226.238ZM188.243 226.238H190.215V227.949C190.756 227.292 191.365 226.799 192.042 226.47C192.719 226.122 193.424 225.948 194.159 225.948C195.551 225.948 196.44 226.673 196.827 228.123C197.388 227.408 198.016 226.866 198.712 226.499C199.427 226.132 200.172 225.948 200.945 225.948C201.776 225.948 202.453 226.248 202.975 226.847C203.516 227.446 203.787 228.423 203.787 229.776V243H201.815V229.834C201.815 228.925 201.67 228.297 201.38 227.949C201.09 227.582 200.674 227.398 200.133 227.398C199.63 227.398 199.099 227.553 198.538 227.862C197.977 228.171 197.455 228.597 196.972 229.138C197.011 229.409 197.03 229.621 197.03 229.776V243H195.029V229.834C195.029 228.906 194.884 228.268 194.594 227.92C194.304 227.572 193.888 227.398 193.347 227.398C192.844 227.398 192.322 227.553 191.781 227.862C191.24 228.171 190.718 228.587 190.215 229.109V243H188.243V226.238ZM211.111 243.261C210.029 243.261 209.159 243.048 208.501 242.623C207.844 242.198 207.361 241.511 207.051 240.564C206.742 239.617 206.587 238.331 206.587 236.707V232.473C206.587 230.83 206.742 229.544 207.051 228.616C207.38 227.669 207.873 226.992 208.53 226.586C209.207 226.18 210.077 225.977 211.14 225.977C212.3 225.977 213.19 226.228 213.808 226.731C214.446 227.214 214.881 227.949 215.113 228.935C215.365 229.921 215.49 231.245 215.49 232.908V234.416H208.704V237.345C208.704 238.95 208.888 240.071 209.255 240.709C209.623 241.347 210.241 241.666 211.111 241.666C211.846 241.666 212.407 241.434 212.793 240.97C213.199 240.506 213.402 239.665 213.402 238.447V237.287H215.461V238.215C215.461 239.839 215.123 241.086 214.446 241.956C213.77 242.826 212.658 243.261 211.111 243.261ZM213.402 233.198V231.806C213.402 230.801 213.344 230.008 213.228 229.428C213.132 228.848 212.919 228.394 212.59 228.065C212.262 227.736 211.769 227.572 211.111 227.572C210.512 227.572 210.038 227.707 209.69 227.978C209.342 228.229 209.091 228.684 208.936 229.341C208.782 229.979 208.704 230.888 208.704 232.067V233.198H213.402ZM218.348 226.238H220.465V227.978C221.025 227.359 221.644 226.876 222.321 226.528C223.017 226.161 223.742 225.977 224.496 225.977C225.327 225.977 225.965 226.286 226.41 226.905C226.854 227.524 227.077 228.403 227.077 229.544V243H224.96V230.008C224.96 229.157 224.824 228.548 224.554 228.181C224.302 227.814 223.906 227.63 223.365 227.63C222.901 227.63 222.417 227.775 221.915 228.065C221.412 228.336 220.929 228.713 220.465 229.196V243H218.348V226.238ZM234.187 243.203C233.046 243.203 232.254 242.894 231.809 242.275C231.384 241.637 231.171 240.719 231.171 239.52V227.63H229.112V226.238H231.171V221.047H233.288V226.238H236.072V227.63H233.288V239.317C233.288 240.168 233.385 240.757 233.578 241.086C233.771 241.395 234.168 241.55 234.767 241.55C235.134 241.55 235.54 241.502 235.985 241.405V243.029C235.386 243.145 234.786 243.203 234.187 243.203ZM242.17 243.261C240.855 243.261 239.792 242.836 238.98 241.985C238.187 241.134 237.733 239.974 237.617 238.505L239.386 237.954C239.502 239.23 239.801 240.168 240.285 240.767C240.768 241.366 241.445 241.666 242.315 241.666C243.049 241.666 243.61 241.463 243.997 241.057C244.403 240.632 244.606 240.042 244.606 239.288C244.606 238.186 243.929 237.065 242.576 235.924L240.285 233.952C239.492 233.295 238.912 232.647 238.545 232.009C238.177 231.371 237.994 230.617 237.994 229.747C237.994 228.568 238.351 227.649 239.067 226.992C239.801 226.315 240.778 225.977 241.996 225.977C243.233 225.977 244.18 226.373 244.838 227.166C245.514 227.959 245.891 229.032 245.969 230.385L244.461 230.878C244.345 228.674 243.552 227.572 242.083 227.572C241.425 227.572 240.903 227.756 240.517 228.123C240.13 228.471 239.937 228.964 239.937 229.602C239.937 230.124 240.033 230.578 240.227 230.965C240.42 231.352 240.778 231.777 241.3 232.241L243.678 234.358C244.586 235.17 245.273 235.934 245.737 236.649C246.22 237.345 246.462 238.205 246.462 239.23C246.462 240.506 246.075 241.502 245.302 242.217C244.528 242.913 243.484 243.261 242.17 243.261ZM248.993 239.81H251.226V243H248.993V239.81ZM259.426 219.51H261.311L264.414 238.592L267.952 219.858H269.779L273.404 238.621L276.275 219.51H278.131L274.332 243H272.621L268.88 223.628L265.197 243H263.399L259.426 219.51ZM284.687 243.261C283.605 243.261 282.735 243.048 282.077 242.623C281.42 242.198 280.937 241.511 280.627 240.564C280.318 239.617 280.163 238.331 280.163 236.707V232.473C280.163 230.83 280.318 229.544 280.627 228.616C280.956 227.669 281.449 226.992 282.106 226.586C282.783 226.18 283.653 225.977 284.716 225.977C285.876 225.977 286.766 226.228 287.384 226.731C288.022 227.214 288.457 227.949 288.689 228.935C288.941 229.921 289.066 231.245 289.066 232.908V234.416H282.28V237.345C282.28 238.95 282.464 240.071 282.831 240.709C283.199 241.347 283.817 241.666 284.687 241.666C285.422 241.666 285.983 241.434 286.369 240.97C286.775 240.506 286.978 239.665 286.978 238.447V237.287H289.037V238.215C289.037 239.839 288.699 241.086 288.022 241.956C287.346 242.826 286.234 243.261 284.687 243.261ZM286.978 233.198V231.806C286.978 230.801 286.92 230.008 286.804 229.428C286.708 228.848 286.495 228.394 286.166 228.065C285.838 227.736 285.345 227.572 284.687 227.572C284.088 227.572 283.614 227.707 283.266 227.978C282.918 228.229 282.667 228.684 282.512 229.341C282.358 229.979 282.28 230.888 282.28 232.067V233.198H286.978ZM292.214 219.51H294.331V243H292.214V219.51ZM301.962 243.261C300.725 243.261 299.777 242.99 299.12 242.449C298.463 241.888 298.018 241.144 297.786 240.216C297.573 239.269 297.467 238.08 297.467 236.649V232.734C297.467 231.11 297.593 229.815 297.844 228.848C298.115 227.881 298.569 227.166 299.207 226.702C299.864 226.219 300.783 225.977 301.962 225.977C303.605 225.977 304.727 226.431 305.326 227.34C305.925 228.229 306.225 229.563 306.225 231.342V232.154H304.253V231.342C304.253 230.356 304.176 229.592 304.021 229.051C303.886 228.51 303.654 228.133 303.325 227.92C302.996 227.688 302.542 227.572 301.962 227.572C301.305 227.572 300.802 227.727 300.454 228.036C300.125 228.345 299.893 228.838 299.758 229.515C299.642 230.172 299.584 231.129 299.584 232.386V237.084C299.584 238.244 299.652 239.153 299.787 239.81C299.922 240.467 300.164 240.941 300.512 241.231C300.86 241.521 301.353 241.666 301.991 241.666C302.648 241.666 303.132 241.531 303.441 241.26C303.77 240.97 303.982 240.545 304.079 239.984C304.195 239.423 304.253 238.64 304.253 237.635V236.707H306.225V237.519C306.225 238.776 306.109 239.82 305.877 240.651C305.664 241.463 305.249 242.101 304.63 242.565C304.011 243.029 303.122 243.261 301.962 243.261ZM313.205 243.261C311.542 243.261 310.382 242.749 309.725 241.724C309.067 240.68 308.739 239.085 308.739 236.939V232.299C308.739 230.153 309.067 228.568 309.725 227.543C310.382 226.499 311.542 225.977 313.205 225.977C314.887 225.977 316.056 226.499 316.714 227.543C317.371 228.568 317.7 230.153 317.7 232.299V236.939C317.7 239.085 317.371 240.68 316.714 241.724C316.056 242.749 314.887 243.261 313.205 243.261ZM313.205 241.666C313.901 241.666 314.413 241.482 314.742 241.115C315.09 240.748 315.312 240.255 315.409 239.636C315.505 238.998 315.554 238.138 315.554 237.055V232.183C315.554 231.1 315.505 230.25 315.409 229.631C315.312 228.993 315.09 228.49 314.742 228.123C314.413 227.756 313.901 227.572 313.205 227.572C312.509 227.572 311.996 227.756 311.668 228.123C311.339 228.49 311.126 228.993 311.03 229.631C310.933 230.25 310.885 231.1 310.885 232.183V237.055C310.885 238.138 310.933 238.998 311.03 239.636C311.126 240.255 311.339 240.748 311.668 241.115C311.996 241.482 312.509 241.666 313.205 241.666ZM320.641 226.238H322.613V227.949C323.154 227.292 323.763 226.799 324.44 226.47C325.116 226.122 325.822 225.948 326.557 225.948C327.949 225.948 328.838 226.673 329.225 228.123C329.785 227.408 330.414 226.866 331.11 226.499C331.825 226.132 332.569 225.948 333.343 225.948C334.174 225.948 334.851 226.248 335.373 226.847C335.914 227.446 336.185 228.423 336.185 229.776V243H334.213V229.834C334.213 228.925 334.068 228.297 333.778 227.949C333.488 227.582 333.072 227.398 332.531 227.398C332.028 227.398 331.496 227.553 330.936 227.862C330.375 228.171 329.853 228.597 329.37 229.138C329.408 229.409 329.428 229.621 329.428 229.776V243H327.427V229.834C327.427 228.906 327.282 228.268 326.992 227.92C326.702 227.572 326.286 227.398 325.745 227.398C325.242 227.398 324.72 227.553 324.179 227.862C323.637 228.171 323.115 228.587 322.613 229.109V243H320.641V226.238ZM343.509 243.261C342.426 243.261 341.556 243.048 340.899 242.623C340.241 242.198 339.758 241.511 339.449 240.564C339.139 239.617 338.985 238.331 338.985 236.707V232.473C338.985 230.83 339.139 229.544 339.449 228.616C339.777 227.669 340.27 226.992 340.928 226.586C341.604 226.18 342.474 225.977 343.538 225.977C344.698 225.977 345.587 226.228 346.206 226.731C346.844 227.214 347.279 227.949 347.511 228.935C347.762 229.921 347.888 231.245 347.888 232.908V234.416H341.102V237.345C341.102 238.95 341.285 240.071 341.653 240.709C342.02 241.347 342.639 241.666 343.509 241.666C344.243 241.666 344.804 241.434 345.191 240.97C345.597 240.506 345.8 239.665 345.8 238.447V237.287H347.859V238.215C347.859 239.839 347.52 241.086 346.844 241.956C346.167 242.826 345.055 243.261 343.509 243.261ZM345.8 233.198V231.806C345.8 230.801 345.742 230.008 345.626 229.428C345.529 228.848 345.316 228.394 344.988 228.065C344.659 227.736 344.166 227.572 343.509 227.572C342.909 227.572 342.436 227.707 342.088 227.978C341.74 228.229 341.488 228.684 341.334 229.341C341.179 229.979 341.102 230.888 341.102 232.067V233.198H345.8ZM360.637 243.203C359.496 243.203 358.704 242.894 358.259 242.275C357.834 241.637 357.621 240.719 357.621 239.52V227.63H355.562V226.238H357.621V221.047H359.738V226.238H362.522V227.63H359.738V239.317C359.738 240.168 359.835 240.757 360.028 241.086C360.221 241.395 360.618 241.55 361.217 241.55C361.584 241.55 361.99 241.502 362.435 241.405V243.029C361.836 243.145 361.236 243.203 360.637 243.203ZM368.939 243.261C367.276 243.261 366.116 242.749 365.459 241.724C364.802 240.68 364.473 239.085 364.473 236.939V232.299C364.473 230.153 364.802 228.568 365.459 227.543C366.116 226.499 367.276 225.977 368.939 225.977C370.621 225.977 371.791 226.499 372.448 227.543C373.105 228.568 373.434 230.153 373.434 232.299V236.939C373.434 239.085 373.105 240.68 372.448 241.724C371.791 242.749 370.621 243.261 368.939 243.261ZM368.939 241.666C369.635 241.666 370.147 241.482 370.476 241.115C370.824 240.748 371.046 240.255 371.143 239.636C371.24 238.998 371.288 238.138 371.288 237.055V232.183C371.288 231.1 371.24 230.25 371.143 229.631C371.046 228.993 370.824 228.49 370.476 228.123C370.147 227.756 369.635 227.572 368.939 227.572C368.243 227.572 367.731 227.756 367.402 228.123C367.073 228.49 366.861 228.993 366.764 229.631C366.667 230.25 366.619 231.1 366.619 232.183V237.055C366.619 238.138 366.667 238.998 366.764 239.636C366.861 240.255 367.073 240.748 367.402 241.115C367.731 241.482 368.243 241.666 368.939 241.666ZM48.624 269.238H50.596V270.949C51.1373 270.292 51.7463 269.799 52.423 269.47C53.0997 269.122 53.8053 268.948 54.54 268.948C55.932 268.948 56.8213 269.673 57.208 271.123C57.7687 270.408 58.397 269.866 59.093 269.499C59.8083 269.132 60.5527 268.948 61.326 268.948C62.1573 268.948 62.834 269.248 63.356 269.847C63.8973 270.446 64.168 271.423 64.168 272.776V286H62.196V272.834C62.196 271.925 62.051 271.297 61.761 270.949C61.471 270.582 61.0553 270.398 60.514 270.398C60.0113 270.398 59.4797 270.553 58.919 270.862C58.3583 271.171 57.8363 271.597 57.353 272.138C57.3917 272.409 57.411 272.621 57.411 272.776V286H55.41V272.834C55.41 271.906 55.265 271.268 54.975 270.92C54.685 270.572 54.2693 270.398 53.728 270.398C53.2253 270.398 52.7033 270.553 52.162 270.862C51.6207 271.171 51.0987 271.587 50.596 272.109V286H48.624V269.238ZM66.8231 288.523C68.1764 288.523 69.0851 288.378 69.5491 288.088C70.0131 287.798 70.2451 287.363 70.2451 286.783C70.2451 286.416 70.1581 285.894 69.9841 285.217C69.8294 284.521 69.7328 284.115 69.6941 283.999L66.2431 269.238H68.3601L71.2601 283.506L74.0731 269.238H76.2191L72.1591 287.189C71.9078 288.252 71.4051 289.016 70.6511 289.48C69.8971 289.944 68.8048 290.176 67.3741 290.176H66.8231V288.523ZM88.079 286.261C86.7643 286.261 85.701 285.836 84.889 284.985C84.0963 284.134 83.642 282.974 83.526 281.505L85.295 280.954C85.411 282.23 85.7106 283.168 86.194 283.767C86.6773 284.366 87.354 284.666 88.224 284.666C88.9586 284.666 89.5193 284.463 89.906 284.057C90.312 283.632 90.515 283.042 90.515 282.288C90.515 281.186 89.8383 280.065 88.485 278.924L86.194 276.952C85.4013 276.295 84.8213 275.647 84.454 275.009C84.0866 274.371 83.903 273.617 83.903 272.747C83.903 271.568 84.2606 270.649 84.976 269.992C85.7106 269.315 86.687 268.977 87.905 268.977C89.1423 268.977 90.0896 269.373 90.747 270.166C91.4236 270.959 91.8006 272.032 91.878 273.385L90.37 273.878C90.254 271.674 89.4613 270.572 87.992 270.572C87.3346 270.572 86.8126 270.756 86.426 271.123C86.0393 271.471 85.846 271.964 85.846 272.602C85.846 273.124 85.9426 273.578 86.136 273.965C86.3293 274.352 86.687 274.777 87.209 275.241L89.587 277.358C90.4956 278.17 91.182 278.934 91.646 279.649C92.1293 280.345 92.371 281.205 92.371 282.23C92.371 283.506 91.9843 284.502 91.211 285.217C90.4376 285.913 89.3936 286.261 88.079 286.261ZM95.0181 264.047H97.1351V266.918H95.0181V264.047ZM95.0181 269.238H97.1351V286H95.0181V269.238ZM104.678 286.203C103.537 286.203 102.745 285.894 102.3 285.275C101.875 284.637 101.662 283.719 101.662 282.52V270.63H99.6031V269.238H101.662V264.047H103.779V269.238H106.563V270.63H103.779V282.317C103.779 283.168 103.876 283.757 104.069 284.086C104.262 284.395 104.659 284.55 105.258 284.55C105.625 284.55 106.031 284.502 106.476 284.405V286.029C105.877 286.145 105.277 286.203 104.678 286.203ZM113.038 286.261C111.955 286.261 111.085 286.048 110.428 285.623C109.771 285.198 109.287 284.511 108.978 283.564C108.669 282.617 108.514 281.331 108.514 279.707V275.473C108.514 273.83 108.669 272.544 108.978 271.616C109.307 270.669 109.8 269.992 110.457 269.586C111.134 269.18 112.004 268.977 113.067 268.977C114.227 268.977 115.116 269.228 115.735 269.731C116.373 270.214 116.808 270.949 117.04 271.935C117.291 272.921 117.417 274.245 117.417 275.908V277.416H110.631V280.345C110.631 281.95 110.815 283.071 111.182 283.709C111.549 284.347 112.168 284.666 113.038 284.666C113.773 284.666 114.333 284.434 114.72 283.97C115.126 283.506 115.329 282.665 115.329 281.447V280.287H117.388V281.215C117.388 282.839 117.05 284.086 116.373 284.956C115.696 285.826 114.585 286.261 113.038 286.261ZM115.329 276.198V274.806C115.329 273.801 115.271 273.008 115.155 272.428C115.058 271.848 114.846 271.394 114.517 271.065C114.188 270.736 113.695 270.572 113.038 270.572C112.439 270.572 111.965 270.707 111.617 270.978C111.269 271.229 111.018 271.684 110.863 272.341C110.708 272.979 110.631 273.888 110.631 275.067V276.198H115.329ZM120.448 262.51H122.71L121.927 280.954H121.173L120.448 262.51ZM120.419 283.448H122.681V286H120.419V283.448Z" fill="#2B2B2B"/>
</g>
<defs>
<filter id="filter0_d" x="0" y="0" width="465" height="342" filterUnits="userSpaceOnUse" color-interpolation-filters="sRGB">
<feFlood flood-opacity="0" result="BackgroundImageFix"/>
<feColorMatrix in="SourceAlpha" type="matrix" values="0 0 0 0 0 0 0 0 0 0 0 0 0 0 0 0 0 0 127 0"/>
<feOffset dy="4"/>
<feGaussianBlur stdDeviation="2"/>
<feColorMatrix type="matrix" values="0 0 0 0 0 0 0 0 0 0 0 0 0 0 0 0 0 0 0.25 0"/>
<feBlend mode="normal" in2="BackgroundImageFix" result="effect1_dropShadow"/>
<feBlend mode="normal" in="SourceGraphic" in2="effect1_dropShadow" result="shape"/>
</filter>
<filter id="filter1_d" x="44.305" y="47.5098" width="333.129" height="250.666" filterUnits="userSpaceOnUse" color-interpolation-filters="sRGB">
<feFlood flood-opacity="0" result="BackgroundImageFix"/>
<feColorMatrix in="SourceAlpha" type="matrix" values="0 0 0 0 0 0 0 0 0 0 0 0 0 0 0 0 0 0 127 0"/>
<feOffset dy="4"/>
<feGaussianBlur stdDeviation="2"/>
<feColorMatrix type="matrix" values="0 0 0 0 0 0 0 0 0 0 0 0 0 0 0 0 0 0 0.25 0"/>
<feBlend mode="normal" in2="BackgroundImageFix" result="effect1_dropShadow"/>
<feBlend mode="normal" in="SourceGraphic" in2="effect1_dropShadow" result="shape"/>
</filter>
</defs>
</svg>
