<svg width="472" height="227" viewBox="0 0 472 227" fill="none" xmlns="http://www.w3.org/2000/svg">
<g filter="url(#filter0_d)">
<rect x="115" width="132" height="72" fill="#FB30E6"/>
<rect x="79" y="168" width="102" height="51" fill="#B78DD0"/>
<rect x="250" y="92" width="42" height="31" fill="#38EC75"/>
<rect x="250" y="137" width="42" height="31" fill="#F59C16"/>
<rect x="250" y="182" width="42" height="31" fill="#1095F5"/>
<rect x="4" y="99" width="75" height="49" fill="#9CC9BE"/>
<path d="M176.233 72.4427C161 128 102 91.0001 79.2325 123.443" stroke="#DD3E3E" stroke-width="2" stroke-linecap="round"/>
<path d="M38.3768 147.671C38.3768 169 68 165 79.3768 194.671" stroke="#DD3E3E" stroke-width="2" stroke-linecap="round"/>
<path d="M180.22 192.374C223.528 179.465 196.249 117.164 249.5 108" stroke="#DD3E3E" stroke-width="2" stroke-linecap="round"/>
<path d="M180.499 192.135C212.5 192.135 217.5 152.135 249.499 152.135" stroke="#DD3E3E" stroke-width="2" stroke-linecap="round"/>
<path d="M180.5 192.5C207.415 211.996 222.5 198.5 250.085 197.004" stroke="#DD3E3E" stroke-width="2" stroke-linecap="round"/>
<circle cx="79" cy="123" r="3" fill="#DD3E3E"/>
<circle cx="176" cy="72" r="3" fill="#DD3E3E"/>
<circle cx="250" cy="108" r="3" fill="#DD3E3E"/>
<circle cx="250" cy="152" r="3" fill="#DD3E3E"/>
<circle cx="180" cy="192" r="3" fill="#DD3E3E"/>
<circle cx="250" cy="197" r="3" fill="#DD3E3E"/>
<circle cx="79" cy="195" r="3" fill="#DD3E3E"/>
<circle cx="39" cy="148" r="3" fill="#DD3E3E"/>
</g>
<g filter="url(#filter1_d)">
<rect x="322" width="132" height="200" rx="2" fill="#E8E8E8"/>
<line x1="340" y1="29.5" x2="436" y2="29.5" stroke="black"/>
<line x1="340" y1="37.5" x2="436" y2="37.5" stroke="black"/>
<line x1="340" y1="45.5" x2="436" y2="45.5" stroke="black"/>
<line x1="340" y1="54.5" x2="436" y2="54.5" stroke="black"/>
<line x1="340" y1="63.5" x2="436" y2="63.5" stroke="black"/>
<line x1="340" y1="71.5" x2="411" y2="71.5" stroke="black"/>
<line x1="351" y1="131.5" x2="422" y2="131.5" stroke="#52CEB8"/>
<line x1="350.75" y1="131.501" x2="350.75" y2="84.9988" stroke="#52CEB8"/>
<line x1="340" y1="158.5" x2="436" y2="158.5" stroke="black"/>
<line x1="340" y1="167.5" x2="436" y2="167.5" stroke="black"/>
<line x1="340" y1="176.5" x2="436" y2="176.5" stroke="black"/>
<line x1="340" y1="185.5" x2="411" y2="185.5" stroke="black"/>
<line x1="459.5" y1="6.5" x2="459.5" y2="205.5" stroke="#F6F6F6" stroke-width="3" stroke-linecap="round"/>
<line x1="329.5" y1="205.5" x2="458.5" y2="205.5" stroke="#F6F6F6" stroke-width="3" stroke-linecap="round"/>
<line x1="466.5" y1="12.5" x2="466.5" y2="212.5" stroke="#F6F6F6" stroke-width="3" stroke-linecap="round"/>
<line x1="336.5" y1="212.5" x2="465.5" y2="212.5" stroke="#F6F6F6" stroke-width="3" stroke-linecap="round"/>
</g>
<defs>
<filter id="filter0_d" x="0" y="0" width="296" height="227" filterUnits="userSpaceOnUse" color-interpolation-filters="sRGB">
<feFlood flood-opacity="0" result="BackgroundImageFix"/>
<feColorMatrix in="SourceAlpha" type="matrix" values="0 0 0 0 0 0 0 0 0 0 0 0 0 0 0 0 0 0 127 0"/>
<feOffset dy="4"/>
<feGaussianBlur stdDeviation="2"/>
<feColorMatrix type="matrix" values="0 0 0 0 0 0 0 0 0 0 0 0 0 0 0 0 0 0 0.25 0"/>
<feBlend mode="normal" in2="BackgroundImageFix" result="effect1_dropShadow"/>
<feBlend mode="normal" in="SourceGraphic" in2="effect1_dropShadow" result="shape"/>
</filter>
<filter id="filter1_d" x="318" y="0" width="154" height="222" filterUnits="userSpaceOnUse" color-interpolation-filters="sRGB">
<feFlood flood-opacity="0" result="BackgroundImageFix"/>
<feColorMatrix in="SourceAlpha" type="matrix" values="0 0 0 0 0 0 0 0 0 0 0 0 0 0 0 0 0 0 127 0"/>
<feOffset dy="4"/>
<feGaussianBlur stdDeviation="2"/>
<feColorMatrix type="matrix" values="0 0 0 0 0 0 0 0 0 0 0 0 0 0 0 0 0 0 0.25 0"/>
<feBlend mode="normal" in2="BackgroundImageFix" result="effect1_dropShadow"/>
<feBlend mode="normal" in="SourceGraphic" in2="effect1_dropShadow" result="shape"/>
</filter>
</defs>
</svg>
