<svg width="54" height="54" viewBox="0 0 54 54" fill="none" xmlns="http://www.w3.org/2000/svg">
<path fill-rule="evenodd" clip-rule="evenodd" d="M20.2498 27C24.5923 27 28.1248 23.4675 28.1248 19.1251C28.1248 14.7825 24.5923 11.25 20.2498 11.25C15.9073 11.25 12.3748 14.7825 12.3748 19.1251C12.3748 23.4675 15.9073 27 20.2498 27ZM4.49985 38.8125C4.49985 33.5701 14.9848 30.9376 20.2498 30.9376C25.5148 30.9376 35.9998 33.5701 35.9998 38.8125V42.7501H4.49985V38.8125ZM20.2499 35.4375C16.2224 35.4375 11.6549 36.9451 9.76489 38.25H30.7349C28.8449 36.9451 24.2774 35.4375 20.2499 35.4375ZM23.6248 19.1251C23.6248 17.2575 22.1173 15.7501 20.2498 15.7501C18.3823 15.7501 16.8748 17.2575 16.8748 19.1251C16.8748 20.9925 18.3823 22.5001 20.2498 22.5001C22.1173 22.5001 23.6248 20.9925 23.6248 19.1251ZM36.0898 31.0726C38.6999 32.9626 40.4996 35.4826 40.4996 38.8125V42.7501H49.4999V38.8125C49.4999 34.2676 41.6247 31.6801 36.0898 31.0726ZM41.6247 19.1251C41.6247 23.4675 38.0923 27 33.7498 27C32.5348 27 31.4098 26.7075 30.3748 26.2126C31.7923 24.21 32.6248 21.7576 32.6248 19.1251C32.6248 16.4926 31.7923 14.04 30.3748 12.0376C31.4098 11.5425 32.5348 11.25 33.7498 11.25C38.0923 11.25 41.6247 14.7825 41.6247 19.1251Z" fill="black" fill-opacity="0.54"/>
</svg>
